<?xml version="1.0" standalone="no"?>
<!DOCTYPE svg PUBLIC "-//W3C//DTD SVG 1.1//EN" "http://www.w3.org/Graphics/SVG/1.1/DTD/svg11.dtd" >
<svg xmlns="http://www.w3.org/2000/svg">
<defs>
  <font id="myfont" horiz-adv-x="64">
    <font-face font-family="myfont"
      units-per-em="64" ascent="64"
      descent="0" />
    <missing-glyph horiz-adv-x="0" />
    <glyph glyph-name="glyph0x1000"
      unicode="&#x1000;"
      horiz-adv-x="64" d="M21.5 49L26.5 47L30 47.5L30 34.5L31 32.5L30 29L25 31Q25.8 27.2 22.5 26Q19.9 25.2 21 28.5Q19.8 31 16 30L17.5 34L21.5 33L24 34.5L18 35.5L19 40.5L18 42.5L21.5 49zM22 48L22 47L22 48zM26 38L26 37L26 38zM27 35L27 34L27 35zM34 46L37 45.5L37 30L32 31L33 39.5L35 42.5L34 46zM31.5 29L32 26L35 24.5Q36.5 17.5 33.5 18L32 15L27 16Q28.5 19.8 25.5 19L25 21.5L24 24.5L26 25.5L27.5 22L28 26Q32.3 24.5 31.5 29zM32 22L32 21L32 22zM36.5 22L36.5 21L36.5 22zM22.5 21L23 19.5L22 19.5L22.5 21z" />
    <glyph glyph-name="glyph0x1001"
      unicode="&#x1001;"
      horiz-adv-x="64" d="M18 48L30 48L30 35.5L31 32.5Q29.6 29.7 25 31L23.5 27L23 29L16 30L17 34L20 34.5L18 35L18 44.5L17 45.5L18 48zM24 43L24 42L24 43zM24 30L24 29L24 30zM35.5 48L38 46.5Q35.8 45.2 37 40.5L38 38.5L37 37.5L37 31Q33.2 30 32 32.5Q32.2 40.8 36 45.5L33 44.5L35.5 48zM21.5 28L21.5 27L21.5 28zM31.5 28L32.5 25Q33.8 27.2 35 24.5Q36.3 18.4 33.5 19L32 16L28.5 17L27 16.5Q28.1 19.8 25.5 19L26 20.5L24 26Q27.7 27.5 27 24.5L28 24.5Q27.2 27.5 31 26L31.5 28zM32 22L31 20L32 20L32 22zM36.5 23L37 21.5L36 21.5L36.5 23z" />
    <glyph glyph-name="glyph0x1002"
      unicode="&#x1002;"
      horiz-adv-x="64" d="M18.5 47L22.5 45L25.5 46Q28.8 47.1 28 44.5L30.5 40L33 40.5L33.5 43L34.5 41L35 43.5L34.5 45Q36.8 45.7 36 43.5L37 43.5L38.5 46L41 43.5L41 36Q38 37.2 39 33.5L38 31Q34 29.6 36 36.5L35 38.5L35.5 40Q32.5 40.9 34 36.5L34 34.5L32.5 31L29 33L27.5 30Q23.1 31.5 24 28.5L22.5 29L19.5 30L16.5 28L16 30.5Q18.9 34.1 18 41.5L17 45.5L18.5 47zM23 42L21 40L23 33L26 39Q27 44 23 42zM30 36L29 34L30 34L30 36zM40.5 33L40.5 32L40.5 33zM25 25L29 24.5L27 24L27.5 18L28 23L31 21.5L32.5 19Q35.1 19.7 34 17L30.5 16L28 17.5Q29.1 14.2 26.5 15L25 16.5L25 25zM36.5 24L38 21.5L36.5 19L36.5 24zM23.5 20L24 17.5L23 17.5L23.5 20z" />
    <glyph glyph-name="glyph0x1003"
      unicode="&#x1003;"
      horiz-adv-x="64" d="M18 48L25.5 48L29 46L30.5 39L31 41L33 41L33 46L35 46L34 42.5L35.5 40L36 47L40 45.5L41 35L38 33.5Q38.8 29.7 36.5 29L36 35.5L34.5 37L34 31L32 31L32 26L37 24L38 21.5L36.5 19L35.5 22L34 17L31.5 16L26 18.5L25 23.5L27 24.5L26 21L28 21L28 26Q32.5 24.5 31 29L24.5 29L23.5 28L21.5 28L16 29L17.5 33Q22.9 31.1 22 34.5Q20.3 32.9 18.5 36Q15.1 35.1 17 40.5L19 43.5L17 44L18 48zM23 43L24 41Q25 44 23 43zM23 39L22 37L23 37L23 39zM28 36L26 34L27 32L29 33L31 30L31 35L29 34L28 36zM32 23L31 20L32 20L32 23zM40.5 33L40.5 32L40.5 33z" />
    <glyph glyph-name="glyph0x1004"
      unicode="&#x1004;"
      horiz-adv-x="64" d="M19.5 47L23 39.5L20 38.5Q18.4 32.8 24 35L25 37.5L24 39.5L27 45L30 43.5L28 34.5L29 32L18 30Q16.1 34.1 17 42.5L19.5 47zM35.5 47Q38.5 46.5 38 42.5L37 41.5L37 33Q30.6 30.7 33 38.5Q35.5 40 34 45.5L35.5 47zM32.5 29Q35.1 29.8 34 26.5L35 24.5L35 22.5Q37.1 16.6 32.5 18Q31.3 15.7 30 18.5Q29.3 20.7 31.5 20Q33.8 20.7 33 24.5L32 24.5L31.5 22L31 24L25 25Q23.9 27.7 26.5 27L28 26.5Q27.1 29.5 31.5 28L32.5 29zM36.5 24L38 21.5L36 20.5L36.5 24z" />
    <glyph glyph-name="glyph0x1005"
      unicode="&#x1005;"
      horiz-adv-x="64" d="M24.5 49L37 47.5L33 45L33 36Q38.2 38.1 37 33.5L34.5 32L32 33L31 28Q34 29.2 33 25.5L32 25.5L31.5 27L30 23.5L31 20.5L30 16Q33.5 14.9 32 22.5L35 20.5Q31.5 18.3 32 13L28 14L27.5 12Q26.3 15 22 14L23 18.5L20 19.5L22.5 23L26 24.5Q24.8 27.2 23.5 25L20 26.5Q18.7 30.7 23.5 29L25.5 30L28 29Q29.3 32 25.5 31L22.5 32L19.5 31L16 33.5L20 34Q21.9 39.6 17 38L17 42.5L18 45.5L17 48L23.5 48L24.5 49zM26 45L22 44L24 41L25 43L28 42Q30 46 26 45zM24 38Q23 35 26 36Q27 39 24 38zM32 37L31 35L32 35L32 37zM28 36L27 34L28 34L28 36zM28 25L28 24L28 25zM24 20L24 19L24 20zM26 20L24 18L27 18Q28 21 26 20z" />
    <glyph glyph-name="glyph0x1006"
      unicode="&#x1006;"
      horiz-adv-x="64" d="M18.5 48L22.5 47L26 48Q25 44.2 27.5 43L28.5 46L29 39.5L28 37L24 38L23.5 36L22 36.5L22.5 34L24.5 34L28 33L28.5 35L29 32.5L27.5 30L25.5 31L17 29L18 33.5L17 40Q20.7 38.8 19 44Q16 42.7 17 46.5L18.5 48zM22 43L22 41L24 40Q25 44 22 43zM33.5 47Q36.1 47.8 35 44.5L36 44.5L36.5 47L38 45.5L39 39.5Q35.1 37.4 36 32L32 32.5L32 45.5L33.5 47zM35 37L35 36L35 37zM40.5 40L41 37.5L39 36.5L40.5 40zM28 29Q33.2 31.1 32 26.5L31 23.5L34 18L32 18Q33.1 20.7 30.5 20L24 18L23.5 16L22 20Q25 18.7 24 22.5L28 29z" />
    <glyph glyph-name="glyph0x1007"
      unicode="&#x1007;"
      horiz-adv-x="64" d="M17.5 48L32.5 48L35 47L35.5 45L37 45.5L38 38.5L35.5 32Q28.2 34.2 30 29L33.5 30L35 23.5L35 21.5L34 17L32 17L32 13L30.5 13Q29 16.5 27.5 14L22 16L22 22L24.5 22L28 23L27.5 26L25 24.5L24.5 26L22 24.5L21 27.5Q23.3 28.7 20.5 30L17.5 32L16 31.5Q15.3 35.2 17.5 36L19 35.5L19 43.5L17.5 44L16 46.5L17.5 48zM22 44L22 41Q23 39 25 41Q29 40 27 44L25 43L22 44zM24 39Q23 35 26 36Q27 40 24 39zM32 39L30 36Q29 33 32 34L32 39zM22 31L23 30L24 29Q25 32 22 31zM26 31L25 28L28 28Q29 32 26 31zM32 22L31 18L32 18L32 22zM28 20L26 17L28 18L28 20zM40.5 39L41 37L39 37.5L40.5 39zM48.5 38L48.5 37L48.5 38zM39.5 35L39.5 34L39.5 35zM36.5 21L38 20.5L36.5 20L36.5 21z" />
    <glyph glyph-name="glyph0x1008"
      unicode="&#x1008;"
      horiz-adv-x="64" d="" />
    <glyph glyph-name="glyph0x1009"
      unicode="&#x1009;"
      horiz-adv-x="64" d="M17.5 48L25.5 48L26 46.5L27 46.5Q26.2 49.5 30 48L30 41.5L31 40.5L29 34.5L32.5 28Q35.1 28.8 34 25.5Q36.3 24.2 35 19.5L32 18L30.5 15L24 17.5L25 23Q21 24.4 23 17.5L22 17.5Q20.5 23.5 23.5 25L26.5 26L28 25.5Q27.3 27.7 29.5 27L31 26.5L28.5 30L25.5 28L24 28.5L23.5 27L22.5 30L16 29L16 32L22 32L22 34.5L23 38L17 36L19 44Q16.3 42.9 17 45.5Q14.7 46.7 17.5 48zM27 45L27 41L27 42Q29 44 27 45zM24 43L23 41L24 41L24 43zM27 35L27 34L28 34L27 35zM26 23L26 17L28 18Q30 24 26 23zM32 22L32 21L32 22zM34.5 48L38 45.5L38 36.5L35.5 31Q30.7 29.3 32 33.5L33 35.5L32 39.5L33.5 42Q34.8 39.7 36 42.5Q34.8 45.2 33.5 43L32 43L32 47L34.5 48zM36.5 23L37 19.5L36 19.5L36.5 23z" />
    <glyph glyph-name="glyph0x100m"
      unicode="&#x0;"
      horiz-adv-x="64" d="M18.5 48Q25.3 49.3 28.5 47L30 47.5L29 42.5L30 37.5L29 33.5L30.5 31L33 34.5L33 38.5L35 40.5L36 45.5L33 44.5L34.5 47L38 45.5L37 43.5L39 38.5L35.5 30L32 31L33 25L35.5 24L37 24.5L36.5 19L35.5 22L35 19Q32.3 20.1 33 17.5Q29.9 15.7 31.5 14L28 16L27.5 24L26 20.5L27 16Q23.5 14.9 25 22.5L23.5 22Q21.3 21.2 22 23.5L23.5 26L24.5 24L29.5 27L31 26.5Q31.6 29.2 25.5 28L23.5 28L20.5 29L18.5 28L16 29L17.5 33Q18.8 30.7 20 33.5L20 35Q16.2 33.5 17 36.5Q19.8 38.2 19 43.5L17 46.5L18.5 48zM26 45Q25 41 28 42Q29 46 26 45zM26 38L25 36L26 36L26 38zM22 37L22 36L23 36L22 37zM21 36L21 35L21 36zM26 36L26 34L28 33Q29 37 26 36zM22 34L20 32L22 32L22 34zM32 22L32 21L32 22zM22 20L24 19.5L22 18.5L22 20z" />
    <glyph glyph-name="glyph0x1010"
      unicode="&#x1010;"
      horiz-adv-x="64" d="M21.5 44L28 44L28 41.5L30.5 40L32 40.5L32.5 33L33 43Q36.7 44.4 35 38.5L34 36.5L36 37.5Q33.4 44.8 39.5 43Q42.3 41.7 40 40.5L41 31.5L39 31.5L40 26.5L38.5 26L36 27L35.5 29L34 25.5L30.5 20L29 24L31 24L31 29L26 29L26 27.5L22.5 26L20 26L20 31.5L17 33Q15.9 39.8 19.5 43L21.5 44zM24 40Q21 39 22 35L25 36Q29 35 28 38L24 40zM31 34L28 32L31 30L31 34zM27 33Q24 29 28 30L27 33zM33 32L32 27L33 27L33 32zM36.5 26L36.5 25L36.5 26zM23.5 25L24 22Q21.3 20.9 22 23.5L23.5 25zM16 24L21 24L21 22L16 22L16 24zM25 24Q28 25.2 27 21.5L25 20.5L25 24z" />
    <glyph glyph-name="glyph0x1011"
      unicode="&#x1011;"
      horiz-adv-x="64" d="M22.5 48L23.5 45L24 47L28.5 48L29 46L32 45.5L32 35.5L31 32.5Q32.3 29.7 33.5 32L35 32L35 27L30 27L30 24.5L29 21.5L30 19Q27 20.2 28 16.5L26.5 17L25 17.5L26 22L28 22.5L25 23L23.5 28L23 24.5L24 21.5L23 21.5L23 24Q19.2 22.5 20 25.5L17 27.5L18.5 31L21.5 30L24 31L24 34L20 34L20 35.5L22 38.5L20 39Q19.1 45 22.5 48zM26 34Q25 31 28 32Q29 35 26 34zM30 31L30 29Q31 27 33 29Q35 28 34 30L33 30L30 31zM29 21L29 20L29 21z" />
    <glyph glyph-name="glyph0x1012"
      unicode="&#x1012;"
      horiz-adv-x="64" d="M22.5 48L27.5 47L29.5 47L31.5 46L34 47L32 40.5L33 37L29 34.5L31.5 33L32 35Q35.8 36 37 33.5L37 32L32 32L32 30Q29.3 31.1 30 28.5L30.5 27L26.5 30L26 27Q29 28.2 28 24.5Q26.8 22 23 23L21.5 17Q18.5 18.5 20 24.5L21 29L24 27.5L24.5 25L25 30L20.5 31L18.5 30L16 31Q14.2 35.9 20.5 34L22.5 34L28 33Q29.5 36.7 26.5 36L24 36.5L23.5 38L21 37L20 45.5L22.5 48zM28 45L26 44Q22 42 27 40L30 42L32 42L32 45L29 43L28 45zM18.5 41L18.5 40L18.5 41zM30.5 23L32 18.5L31 16L26.5 15L24 16L24.5 22L25 19Q28 18 27 21L30 21L30.5 23zM32.5 22L32.5 21L32.5 22z" />
    <glyph glyph-name="glyph0x1013"
      unicode="&#x1013;"
      horiz-adv-x="64" d="M21.5 47Q26.9 47.6 29 46Q30.8 43.6 30 37.5L29 35Q32.7 33.6 31 39.5Q34 40.7 33 45Q37.1 46.3 36 43L34 42.5L36.5 41L38.5 46L41 42.5L41 30.5L40 30.5L39.5 36L38 29L36 29Q37.3 33.1 34 32Q35 29 32 30L32 27.5L34 27.5L35 24L38 22.5L38 20L35 20Q36.7 15.9 32.5 17L30.5 16L27 17L25 23.5L30 26.5L30 29Q27.3 27.9 28 30.5L26.5 30Q24.3 30.7 25 28.5L22 27.5L20.5 24L20 30L16 31.5L17.5 35Q20.8 33.9 20 36.5L17 42.5L21.5 47zM23 42L24 40Q25 43 23 42zM36 41L35 35L36 35L36 41zM25 40L24 36L25 36L25 40zM31 32L31 31L31 32zM32 22L31 20L32 20L32 22z" />
    <glyph glyph-name="glyph0x1014"
      unicode="&#x1014;"
      horiz-adv-x="64" d="M18.5 48Q26.7 49.1 30 47L29 39.5L31 38.5L31.5 40L33.5 39L36 40L36 44L34.5 44L33 43.5Q31.8 47.2 35.5 46L37.5 47L41 45L40.5 31L39.5 35L39 30L36.5 29L35 32.5L36 34.5L34.5 37L33 32.5L34 30.5L32 30.5Q30.5 23.5 33.5 24L35.5 20L36.5 25L38 19L36 19Q37.5 15.2 34.5 16L32.5 17L30.5 14L30 17L27.5 16L27 18L24 18Q25 15 22 16L22 22.5L23.5 24L23 22.5L23.5 20L26.5 26L27.5 24L28 27L30.5 26L31 27.5L31 29.5L30.5 35L27.5 28L24.5 29L20.5 28L16 29L16 32Q20.1 30.3 19 34.5L17 40.5L18 43.5L17 46.5L18.5 48zM28 35L27 32L28 32L28 35z" />
    <glyph glyph-name="glyph0x1015"
      unicode="&#x1015;"
      horiz-adv-x="64" d="M18.5 48Q21.5 48.9 20 44.5L21 44.5L22.5 48L25.5 44L30.5 41L33 45L38.5 46L41 45L40.5 36L39.5 41L38 37.5L39 35.5L36.5 32Q33.8 33.4 35 38Q32.3 39.1 33 36.5L31.5 31L30 39L27.5 40L27 38Q24.3 36.9 25 39.5L24 39.5L25 34.5L23.5 32Q22.3 34.2 21 31.5L20.5 30L19.5 32L17 30.5L18.5 35L20 34.5L19.5 38L18 37.5L19.5 40L21 39.5L18.5 43Q15.5 42.1 17 46.5L18.5 48zM31.5 30L32.5 28L34.5 29L37 28L38 19Q35 17.7 36 21.5L35 21.5Q35.8 17.7 33.5 17L29.5 16L27.5 16L25 17.5L25 26.5L27.5 27L31 28L31.5 30zM26 24L26 22L26 20L27 18L28 18Q30 25 26 24zM30 23L30 20L32 19Q33 24 30 23zM23.5 27L24 24L22 24.5L23.5 27z" />
    <glyph glyph-name="glyph0x1016"
      unicode="&#x1016;"
      horiz-adv-x="64" d="" />
    <glyph glyph-name="glyph0x1017"
      unicode="&#x1017;"
      horiz-adv-x="64" d="M18.5 48L20 47.5L18.5 47L18.5 48zM21.5 48L21.5 47L21.5 48zM23.5 47L27 45.5L25 37.5L27.5 33L28 35Q31 36.2 30 32.5Q28.8 29.7 27.5 32L23.5 31L21 32.5Q21.8 29.9 18.5 31L17 30.5L17 33.5L20 37.5L19 42.5L22 44L23.5 47zM34.5 46L35.5 42L36.5 46L37 42L40 40.5L37 38.5L36.5 37L35 37.5L37 34.5L35.5 32L32 33L33 44.5L34.5 46zM28 43Q31.3 44.1 30 40Q26.7 38.9 28 43zM27.5 39L28 37.5L27 37.5L27.5 39zM22.5 29L24.5 26L25 28L28.5 27L31.5 29L32.5 25L33.5 28L34 20Q37 18.7 36 22.5L38 23.5L37 20.5L37.5 19Q34.5 19.8 36 16L33.5 16L30.5 17L24 19Q25.1 15.7 21 17L22.5 29zM24 25L24 24L24 25zM19.5 19L20 17.5L19 17.5L19.5 19zM27.5 17L27.5 16L27.5 17z" />
    <glyph glyph-name="glyph0x1018"
      unicode="&#x1018;"
      horiz-adv-x="64" d="" />
    <glyph glyph-name="glyph0x1019"
      unicode="&#x1019;"
      horiz-adv-x="64" d="" />
    <glyph glyph-name="glyph0x101m"
      unicode="&#x0;"
      horiz-adv-x="64" d="M17 47L22.5 45L24 45.5Q23.3 43.2 25.5 44Q27 47.5 28.5 45Q31.3 45.6 30 39.5L31 39.5L32 46L38.5 47Q42.8 45.2 41 37.5L38 32Q34.7 30.7 36 35.5L34.5 38L33 34.5Q35.3 33.2 32.5 32L21.5 31L19.5 31L16 31.5L16 43.5L17 47zM36 40L36 39L36 40zM32.5 29Q35.9 29.9 34 24.5L33 21.5L35 18.5L33.5 19L30 20Q31.1 17.3 28.5 18L24 16L24 18Q26.7 16.9 26 19.5L30 28L32.5 29zM36.5 22L37.5 20Q34.7 19.3 36.5 22z" />
    <glyph glyph-name="glyph0x1020"
      unicode="&#x1020;"
      horiz-adv-x="64" d="" />
    <glyph glyph-name="glyph0x1021"
      unicode="&#x1021;"
      horiz-adv-x="64" d="M34.5 48L35.5 44L36.5 46L38 40Q42.5 41.7 41 36.5L40 36.5Q41 40.2 38 39L36.5 36L35 36.5L36 33.5L33 33.5L32 38.5Q34.8 40.2 33 46.5L34.5 48zM36.5 48L36.5 47L36.5 48zM20 45Q25.3 46 27.5 43L30 44L28 32Q25.3 33.1 26 30.5L29.5 28L35 32L35 27L36.5 27Q38.8 26.2 38 22.5L36 17Q30.8 19.1 32 14.5L30.5 15Q24.4 14.3 22 16L20.5 20L19.5 17L19 19.5L20 21.5L19 23.5L21 23.5L20.5 28L19.5 26L19 28.5Q21.3 29.7 20 34.5L17 36L17 40.5L20 45zM24 40L23 38L24 38L24 40zM26 39L24 37L25 33L27 34L26 39zM21 34L23 29L24 29L23 32Q24 35 21 34zM26 28L26 27L26 28zM28 27L28 26L28 27zM28 24L28 23L28 24zM24 19L24 18L24 19z" />
    <glyph glyph-name="glyph0x1022"
      unicode="&#x1022;"
      horiz-adv-x="64" d="" />
    <glyph glyph-name="glyph0x1023"
      unicode="&#x1023;"
      horiz-adv-x="64" d="M17 47L25 47L25 44Q20.5 45.7 22 40.5Q23.8 37.2 25.5 41Q28.5 41.8 27 38Q23.2 39 22 36.5Q21.2 33.9 24.5 35L27.5 34L30 37.5L31 44Q33.7 42.9 33 45.5L34 45.5L34.5 42L35.5 46L36.5 42L38.5 47L39.5 45L41 45.5L40.5 39L39.5 43L38 37.5L38 35.5Q38.8 31.7 36.5 31Q32.2 32.8 35 34.5L33.5 38L32 35.5L32 26L35 25.5L34 22.5L35.5 20L36.5 27L38 18.5L36 18.5Q37.1 14.3 33 16L33 18L28 18L27.5 16L27 18L24.5 19Q22.8 16.3 21 20.5L23 21.5L23.5 19L26 30L21.5 31L16.5 29L17 30.5Q18.7 38.7 16 42.5L17 47zM30 33L27 27L31 29L30 33zM27.5 46L27.5 45L27.5 46zM26.5 44Q29.8 45.1 29 42.5L27.5 43L26.5 44zM23.5 28L23.5 27L23.5 28z" />
    <glyph glyph-name="glyph0x1024"
      unicode="&#x1024;"
      horiz-adv-x="64" d="M35.5 48L35 46.5L35.5 45L38 46.5L36.5 36L35.5 39L33.5 36L31 37L31 41Q34 39.7 33 43.5L35.5 48zM21.5 46L30 43Q30.8 36.6 27.5 33L26 39L23 38.5L25 34.5L23 33.5L22.5 35L20 33.5L19.5 36L17 35L18 43Q20.7 41.9 20 44.5L21.5 46zM24 42L24 41L24 42zM31.5 44L31.5 43L31.5 44zM35.5 35L35.5 34L35.5 35zM25.5 32Q28.5 32.9 27 28.5L28 28.5L28.5 30L29 28Q31.7 29.1 31 26.5L32 26.5Q31.3 30.2 33.5 31L36 29.5L36.5 31Q39.3 29.7 37 28.5L38 23.5L36 18Q32.2 19 31 16.5Q33.3 15.2 30.5 14L30 16L27.5 15L25.5 16L24 15.5L23.5 22L22.5 16L19 23Q22.7 21.6 21 27.5L19.5 27L18 27.5L20 28L21.5 31L23.5 30L25.5 32zM28 24L28 23L28 24zM28 20L28 19L28 20z" />
    <glyph glyph-name="glyph0x1025"
      unicode="&#x1025;"
      horiz-adv-x="64" d="M17 48Q20.7 49.5 20 46.5L22.5 48Q25.1 48.8 24 45.5Q25.4 42.7 30 44L30.5 41L34.5 46L37 45L37.5 47L38 41.5L36 37.5L37 33Q33.3 31.5 34 34.5L35.5 37L31.5 35L30.5 40L27.5 37L26.5 38Q23.5 38.9 25 34.5L24 32L17.5 31L18.5 33L20 33L20 37L22 37L22 40.5L20 43.5L20.5 45Q15.3 43.5 17 48zM35.5 48L35.5 47L35.5 48zM31.5 34L31.5 33L31.5 34zM22 29Q27.2 31.1 26 26.5L28.5 26L30 27.5L30.5 29L34 28Q32.7 21.8 35.5 19L36.5 22L37 19.5L36 16Q32.2 14.5 33 17.5L31.5 22L29.5 18Q25.3 17.2 24.5 20L22.5 17L22 20Q19.3 18.9 20 21.5L22 25.5L22 29zM24 26L22 24L24 23L24 26zM36.5 27L38 23.5L36 23L36.5 27zM27.5 17L27.5 16L27.5 17z" />
    <glyph glyph-name="glyph0x1026"
      unicode="&#x1026;"
      horiz-adv-x="64" d="M19 45L23 42.5L23.5 36Q22.6 41.4 25.5 43L28.5 45L32 42.5Q29.3 40.7 31 34.5L29 32.5L29.5 30L34.5 29L35 30.5L33 34.5L35 34.5L36 43L38 42.5L38 33.5L37 32.5L37 26Q33.3 27.4 35 21.5L33 22.5L32.5 24L30.5 19L29 26L25 24.5L26 20.5L25 20.5Q25.8 22.7 23.5 22L21 21L21 26L19.5 26L17 27.5L20 29.5L18 36.5L18 42.5L19 45zM27 32L25 30L28 30Q29 33 27 32zM24 31L24 30L24 31zM33 29L32 27L33 27L33 29zM32 26L32 25L32 26z" />
    <glyph glyph-name="glyph0x1027"
      unicode="&#x1027;"
      horiz-adv-x="64" d="" />
    <glyph glyph-name="glyph0x1028"
      unicode="&#x1028;"
      horiz-adv-x="64" d="M18.5 46L21 44.5L21 34.5L22.5 34L26 40.5L25 43.5L28 45L28.5 42L30 42.5L30.5 41L32 41.5L32.5 40L36 46Q39.7 47.4 38 41.5L37 36.5L36.5 33L34 33.5L35 35.5L32 37L31.5 35L29 36.5Q30.9 31.1 27.5 32L22 30L21.5 32L20.5 30L17 31.5L17 44.5L18.5 46zM22.5 46L24 45.5L22.5 45L22.5 46zM23.5 26L24 22.5L23.5 21Q26.9 20.1 25 25.5L27 24.5L27 22.5L25.5 19L24 19.5Q25 15.7 22 17L23 19.5L22 22.5L23.5 26zM28.5 26L32 24.5L31 19.5L32 19.5L32.5 21L33 19.5L32 16Q29.3 14.9 30 17.5L28 21.5L30 24.5L28.5 26zM36.5 25L37 22.5L36 22.5L36.5 25zM38.5 25L38.5 24L38.5 25zM33.5 23L33.5 22L33.5 23zM26.5 18L27.5 16Q24.7 15.3 26.5 18z" />
    <glyph glyph-name="glyph0x1029"
      unicode="&#x1029;"
      horiz-adv-x="64" d="M22.5 46L23 36L27.5 34L28 37Q24.3 35.5 25 38.5Q22.7 39.7 24 44.5L28 41.5L28.5 37L31.5 43L32.5 41L35 42L36 46L41 45L41 38L39 38L39 33Q36.3 34.1 37 31.5L36 31.5L35 33.5L36 38.5L34 39.5L33 33.5L31.5 32L29 33.5L29 32L25 32L24.5 34L23.5 31L21.5 34L21 31Q17.2 32.5 18 29.5L16 30.5L19.5 41L21 40.5L22.5 46zM40 41L39 39L40 39L40 41zM23 36L22 34L23 34L23 36zM30 28Q35.2 30.1 34 25.5Q36.3 24.2 35 19.5L32 18Q33.1 15.3 30.5 16Q24.8 17.7 26 25L30 26L30 28zM28 23L28 22L28 23zM31 23L31 20Q35 19 34 21L31 23zM36.5 24L38 21.5L36.5 19L36.5 24z" />
    <glyph glyph-name="glyph0x102m"
      unicode="&#x0;"
      horiz-adv-x="64" d="" />
    <glyph glyph-name="glyph0x1030"
      unicode="&#x1030;"
      horiz-adv-x="64" d="M18 48Q21 49 20 46L23.5 46L23.5 45L21 44.5L22 39.5L21 37.5L22 35L27.5 34L30 35L29 43Q31.7 41.9 31 44.5L35.5 48L36.5 46Q37.8 48.2 39 45.5Q36.8 44.2 38 39.5L36.5 38Q32.8 39 34 36L36.5 37L37 33L31.5 35L31 33.5L31.5 32L29.5 32L26.5 31L25.5 32L17 32Q15.3 41 19 45.5L18 48zM33 45L33 44L33 45zM40.5 45L41 42.5L40 42.5L40.5 45zM28.5 28L31.5 27L33 27.5L35 19L32 17.5L31.5 16Q29.5 18.8 25 18L25 25.5L26.5 27L28.5 28zM32 23L31 20L32 20L32 23zM36.5 23L38 22.5L36.5 22L36.5 23z" />
    <glyph glyph-name="glyph0x1031"
      unicode="&#x1031;"
      horiz-adv-x="64" d="M18.5 47Q21.5 47.8 20 44L22 44Q21 47 24 46L25.5 43Q28.8 44.1 28 41.5Q30.5 40 27 38.5L24.5 31L22.5 32L20 30.5Q20.8 32.7 18.5 32L17 31.5Q20.7 32.7 20 37Q23 35.7 22 39.5L20 39.5L19.5 41L17 40Q15.5 45.4 18.5 47zM25 40L24 37L25 37L25 40zM36.5 46Q40.5 46.5 41 43.5L40.5 36L39.5 41L38 36.5L38 34.5L36.5 31L35 32.5Q36.5 38.5 33.5 40L31.5 31Q28.9 33.4 30 39.5L33 45L36.5 46zM35.5 29L36 27.5L35 27.5L35.5 29zM25 26L27 25.5L27 18.5L28 18.5Q26.5 22.9 29.5 22L32 16L28.5 18L26.5 15L24.5 18L23 17.5L23.5 25L24.5 22L25 26zM36 24Q39 25 38 22Q35 21 36 24zM33 18Q36 19 35 16Q32 15 33 18z" />
    <glyph glyph-name="glyph0x1032"
      unicode="&#x1032;"
      horiz-adv-x="64" d="M24.5 49Q25.8 46.7 30.5 48L32 46.5L32 39.5L34 39L34 34Q38.5 35.5 37 31L32 28.5L30.5 26L29 26.5L30.5 24Q34.3 25.2 33 21.5L32 18.5L30.5 13L30 15L26.5 16Q25 13.5 23.5 17Q20.1 16.1 22 21.5L21 23.5L22 25.5L20 30L16 30L16 31.5L17 34Q21.5 32.2 20 37.5L22 40.5L21 44.5L24 46L24.5 49zM24 40L24 39L24 40zM26 37L24 35L26 32L28 33Q30 32 29 34L26 37zM23 36L21 34L23 34L23 36zM28 28L27 25L28 25L28 28zM24 25L24 24L24 25zM32 23L31 21L32 21L32 23zM29 22L28 19L29 19L29 22zM24 20L23 18L24 18L24 20zM32.5 26L32.5 25L32.5 26zM26.5 14Q28.8 14.7 28 12.5L26.5 14z" />
    <glyph glyph-name="glyph0x1033"
      unicode="&#x1033;"
      horiz-adv-x="64" d="M28.5 46Q33.3 43.7 33 36.5L33 34.5L32.5 29L32 32L24.5 31L23 31.5L24 27L20 28L19.5 26L19 28.5Q23.3 30.9 23 37L20 37.5L21 42L24 42Q22.3 46.1 26.5 45L28 44.5L28.5 46zM24 39L24 38L24 39zM32 39L32 38L32 39zM26 35Q25 32 28 33Q29 36 26 35zM25 33L25 32L25 33zM28.5 30L30 27Q26.5 25.9 28.5 30zM18.5 25L19 23L17 23.5L18.5 25zM32 25L35 23.5Q36.1 20.2 33.5 21L31.5 21L26.5 22L22.5 20L20 21.5Q18.9 24.8 21.5 24L23.5 23L27.5 24L29.5 24L31.5 23L32 25zM36.5 24L37 21.5L36 21.5L36.5 24z" />
    <glyph glyph-name="glyph0x1034"
      unicode="&#x1034;"
      horiz-adv-x="64" d="M18.5 48Q24.8 49.7 26.5 47L28.5 47Q31.1 47.8 30 44.5L28 43.5Q28.8 46.1 25.5 45L23.5 44L22 44.5L21 41.5L23.5 38L24 41Q28.7 42 30 38.5L29 34.5L30 31.5L27.5 31Q24.2 32.1 25 29.5L24 27L21.5 26L19.5 31Q14.3 29.5 16 34L20 34L20 35.5Q17 36.5 18 41.5L19 43.5L17 46.5L18.5 48zM24 37L21 35L24 35L24 37zM28 35L28 34L28 35zM24 31L22 29L24 29L24 31zM35.5 48L37 44.5L37 42.5L37 31.5L35.5 31Q33.8 28.2 32 32.5L33 40.5L35 43.5L33 46.5L35.5 48zM36 46L35 44L36 44L36 46zM31.5 27L32 25L35 23.5Q36 19 33.5 18L30.5 16L27 17L25 21L28 22.5Q26.3 27.3 30.5 26L31.5 27zM32 22L31 20L32 20L32 22zM24 25L27 23.5Q25.5 20.5 24 23.5L24 25zM36.5 23L37 21.5L36 21.5L36.5 23z" />
    <glyph glyph-name="glyph0x1035"
      unicode="&#x1035;"
      horiz-adv-x="64" d="M17.5 46L24.5 46L29 42.5Q28.3 39.9 31 41L31.5 43L32.5 41L34.5 45L36.5 46L39.5 45Q42.5 45.5 41 38.5L39 36.5Q40 32 37.5 31L36 31.5L36 39.5L34 38.5L31.5 32L29 33.5L29 32L25 32L24.5 34L23.5 31L21.5 32L17.5 29L17 34.5L20 40.5L16 43L17.5 46zM24 42L24 41L24 42zM27 37L26 35L27 35L27 37zM31.5 29L35 28L35 25Q37.7 26.1 37 23.5L38 20Q35.3 18.9 36 21.5L35 21.5L33.5 18Q31.3 18.7 32 16.5L30.5 17L25 20.5L26 26Q30.2 25.3 31.5 29zM31 23L31 21L31 20L33 21Q34 24 31 23z" />
    <glyph glyph-name="glyph0x1036"
      unicode="&#x1036;"
      horiz-adv-x="64" d="M21.5 49L28.5 47Q29.8 49.3 31 46.5Q31.7 43.9 29 45L29 42.5L31.5 39L29 37.5L29 35Q32 36.2 31 32.5L30 30L25 31L25 26L27.5 26L32.5 27L35 26L35 17.5L33.5 17L31 17.5L30 22L23 23.5L24 27Q20.3 25.5 21 28.5Q19.8 31 16 30L17 34L20 34.5L18 37.5Q18.7 44.6 17 48L21.5 49zM27 44L27 43L27 44zM23 31L24 29Q25 32 23 31zM32 22L33 20Q34 23 32 22zM35.5 48L37 46.5L37 31.5L34 30Q35 33 32 32L32 34.5L34 44.5Q31.3 46.3 35.5 48zM36.5 26L37 19.5L36 19.5L36.5 26z" />
    <glyph glyph-name="glyph0x1037"
      unicode="&#x1037;"
      horiz-adv-x="64" d="M27.5 45L28.5 42L31 43Q34 39.7 33 31.5Q30.7 30.2 32 25.5L34 24.5L34.5 26L35 21L28.5 20L26.5 20L23.5 21L21.5 21Q18.1 20.1 20 25.5L21 27.5L19 27.5L21 30.5L20 35.5Q22 33.8 24 37.5L25 44L27.5 45zM32 39L31 37L32 37L32 39zM28 36L27 35Q24 36 25 33L23 33L23 30L28 27L28 31L31 31L28 32L28 36zM24 26L24 25L24 26zM28 26L27 23L28 23L28 26zM17.5 24L17.5 23L17.5 24z" />
    <glyph glyph-name="glyph0x1038"
      unicode="&#x1038;"
      horiz-adv-x="64" d="M18.5 48Q19.8 45 24 46L24 44L28 44Q26.9 41.3 29.5 42L32 41Q30.9 43.7 33.5 43L35 42.5L35.5 45L36.5 43L38.5 46L41 44.5Q41.3 35.2 36.5 31L36 37.5L34.5 39Q32.1 36.7 33 32Q30.3 30.9 31 33.5L28.5 37L28 32L24.5 31L21.5 32L17.5 29L16 34.5L17 38.5L17 40.5L18.5 48zM24 43L21 42L20 38Q18 34 23 35L25 38Q27 44 24 43zM28.5 29L32.5 29Q38.2 30.8 36 24.5Q39 23.2 38 19Q35 17.7 36 21.5L35 21.5L33.5 18Q30.9 18.7 32 16L29.5 16L28 16.5Q28.8 14.2 26.5 15L25 16.5L25 25.5L28 27L28.5 29zM27 24L27 18L28 18Q29 25 27 24zM30 23Q29 19 32 20Q33 24 30 23z" />
    <glyph glyph-name="glyph0x1039"
      unicode="&#x1039;"
      horiz-adv-x="64" d="M26.5 43Q29.1 43.8 28 40.5L30 37Q33.5 38.1 32 30.5L31 30.5Q32 34.2 29 33L28.5 30L27 30.5Q28.5 26.1 25.5 27L23.5 27L20 28L18.5 32Q15.9 31.3 17 34Q19.7 32.9 19 35.5L20 38Q17.3 36.9 18 39.5Q15.8 40.7 18.5 42L22.5 41L26.5 43zM24 40L22 37Q21 35 24 36L24 40zM23 32L23 31L23 32zM35 43L38 41.5L37 37.5L37 35.5L36 28.5Q38.5 27 35 25.5L34.5 22L33 27.5L34 31.5Q31.8 32.7 33 37.5L35 43z" />
    <glyph glyph-name="glyph0x103m"
      unicode="&#x0;"
      horiz-adv-x="64" d="M18.5 48L19 46L24 47L25.5 44L27.5 43Q29 45.5 30.5 42L33 42Q31.8 45 35.5 44L38 45.5L37 33L33.5 35L27.5 32L24.5 34L23.5 32L20 33Q21.1 29.7 17 31Q16 34.8 18.5 36Q21.1 35.2 20 38.5L21 40.5L20 45L17.5 44L17 46.5L18.5 48zM26 40L26 36L30 35L31 38Q30 41 26 40zM35.5 48L35.5 47L35.5 48zM28.5 27L34 27L34 24.5L35 19L32 17.5L31.5 16L27.5 19L25 19Q23.5 24.4 26.5 26L28.5 27zM28 23L28 22L28 23zM32 23L31 20L32 20L32 23z" />
    <glyph glyph-name="glyph0x1040"
      unicode="&#x1040;"
      horiz-adv-x="64" d="M22 48Q27.6 50.2 26 44.5L28 40L30.5 39L33 39.5Q31.5 46.5 34.5 46L34 44.5L35.5 40L37 44.5L36.5 46L40 44.5Q42.3 39.8 41 31.5L40 31.5L39.5 35Q40.1 30.4 37.5 29Q35.3 28.2 36 30.5L35 32.5L36 34.5L34 35.5L34 30.5L32 30L32 24Q36.5 25.7 35 20.5L36 20.5L36.5 25L38 18Q35 19 36 16L33.5 16L30.5 17L27.5 16L24 18L23.5 16L23 18Q20.3 16.9 21 19.5L23.5 25L24.5 23L26.5 26L30 27L30.5 25L31 28L27.5 29L25.5 29L23.5 28L22.5 29L16 29L17.5 32Q22.9 30.1 22 33.5L25 37.5L21.5 38Q20.7 35.2 16.5 36L17 37.5L19 43Q21.7 41.9 21 44.5L22 48zM26 37L27 32L29 33Q31 34 30 31L31 31L31 34Q28 33 29 35L26 37zM24 22L23 20L24 20L24 22z" />
    <glyph glyph-name="glyph0x1041"
      unicode="&#x1041;"
      horiz-adv-x="64" d="M22.5 49L23.5 48L33 48Q34.7 43.9 30.5 45L28.5 44L25.5 45L23.5 42L32 41L32.5 39L34 39.5L32 36.5Q36.6 37.1 38 34.5L36 31.5L34.5 32Q31.2 33.1 32 30.5L29 25.5L31 23.5L31.5 16L32.5 23L35 18Q32.3 19.1 33 16.5Q31.7 13.7 30.5 16L26.5 15L24.5 15Q21.9 14.2 23 17.5L24 20Q21.3 18.9 22 21.5L24 25Q21 23.7 22 27.5L21.5 29L25 30.5Q22.2 33.3 16 32L17.5 35L22.5 34L25 35Q26.8 39.5 21.5 38L20 39.5L20 48L22.5 49zM32 36L31 33L32 33L32 36z" />
    <glyph glyph-name="glyph0x1042"
      unicode="&#x1042;"
      horiz-adv-x="64" d="" />
    <glyph glyph-name="glyph0x1043"
      unicode="&#x1043;"
      horiz-adv-x="64" d="M18 48L27.5 48L31 44.5L30 37.5L31 32.5L28.5 29L25 30L21.5 24Q22.1 28.6 19.5 30Q13.8 28.4 16 34Q20.1 32.3 19 36.5L18 41.5L19 45.5L18 48zM24 38L24 37L24 38zM22 35L22 34L23 34L22 35zM36.5 46L39 45.5L38 42.5L39 39.5Q36.4 38.1 37 33.5L37 31.5L35.5 29L32 31.5Q31.3 38.2 33.5 42L34.5 40L37 44.5L36.5 46zM28 26L32.5 25L35 26L35 22L36.5 22L38 18Q35 19 36 16L33.5 16L32 16.5L31.5 14L29.5 17L27.5 16L27 18Q22.9 19.7 24 15.5L22 16.5L22 19.5L25.5 25L28 23.5L28 26z" />
    <glyph glyph-name="glyph0x1044"
      unicode="&#x1044;"
      horiz-adv-x="64" d="M33.5 44L33.5 43L33.5 44zM17 43L21.5 42L24 43L24.5 40L28 42.5Q27 38.7 30 40L30 36L32 36L33.5 40L34 38.5L31.5 26L31 29L25 28L24.5 26L20.5 26L18 24.5L18.5 23L16 24L16 35.5L17 37.5L16 40.5L17 43zM23 40Q19 38 20 31L23 30L24 36L24 38Q25 41 23 40zM28 38L27 35L28 35L28 38zM31 34L29 31L31 31L31 34zM27 33L25 31L27 31L27 33zM37.5 43Q40.1 43.8 39 40.5L41 40.5L37.5 24Q34.1 27.6 35 35.5L38 41.5L37.5 43z" />
    <glyph glyph-name="glyph0x1045"
      unicode="&#x1045;"
      horiz-adv-x="64" d="M18 48L28.5 47L30 45.5L31 42.5L30 38.5L30 36.5L29 31.5L32 30L31 22.5L32 22.5L32.5 24L35 17L32.5 18Q31 15.5 29.5 19Q26.9 19.8 28 16.5L25.5 16L22 17.5L25 23Q29.9 21.2 28 27.5L27 30L23.5 28L22.5 29L16 29L17.5 33Q22.9 31.1 22 34.5L18 37.5L18 48zM22 44L21 41L23 38L24 38Q23 41 27 40L27 44L25 43L22 44zM27 35L27 31L28 31Q29 36 27 35zM32 21L32 20L32 21zM34.5 47L38 45.5L37 42.5L38 38.5L36 33.5L37 31L34.5 30L32 31L34 42.5L33 45.5L34.5 47zM36.5 21L37 19.5L36 19.5L36.5 21z" />
    <glyph glyph-name="glyph0x1046"
      unicode="&#x1046;"
      horiz-adv-x="64" d="M20.5 45L28 44L29 34.5L27.5 33L20 33L20 30Q17 31 18 28L23 30.5L23.5 32L24.5 29L26.5 30L29.5 29L31 30.5L31.5 33L32.5 31L35 32L33.5 26L32.5 28L32 26L30 25.5L31 23.5L30 23.5L27.5 28L24.5 22L24 24.5Q26.2 25.7 23.5 27L22.5 23L21 27L16 27L16 29.5L19 31.5L17 34.5L20 35L22 41Q17.9 39.3 19 43.5L20.5 45zM24 40L23 37L24 37L24 40zM32 29L32 28L32 29zM26 28L26 27L26 28zM37.5 43Q42.1 44.4 40 38.5L41 32L39 31.5L41 31Q42 28 39 29L39 25.5L36 23.5L36 41.5L37.5 43zM31.5 37L32 34.5L31 34.5L31.5 37zM33.5 36L34 33.5L33 33.5L33.5 36z" />
    <glyph glyph-name="glyph0x1047"
      unicode="&#x1047;"
      horiz-adv-x="64" d="M21 48L23.5 47L25 47.5Q24.2 44.9 27.5 46L30.5 48L33 47L32 36Q27.9 37.3 29 34L31.5 33L35.5 35L38 34Q39.1 31.3 36.5 32L30 30L29 24.5L31 18.5L29.5 18L28 18.5L28 16L21.5 16L22 17.5L23.5 23L24.5 21L25 30L20.5 31L18.5 31Q15.2 29.9 16 32.5L17.5 34L28 34Q29.1 36.7 26.5 36L24.5 37L21 36L21 48zM32 44L31 42L32 42L32 44zM32.5 20L34 17L31.5 16L32 17.5L32.5 20z" />
    <glyph glyph-name="glyph0x1048"
      unicode="&#x1048;"
      horiz-adv-x="64" d="M18.5 48L19 46L24 46L24 43.5L22 43.5Q22.8 41.2 20.5 42L20 39.5Q17.9 33.6 22.5 35Q26.8 35.8 26 41.5L25 43.5L26 46L30 43.5Q29.3 41.2 31.5 42Q32.9 46.7 38 46L39 39.5L37 33Q33.3 31.5 34 34.5L32.5 34Q28.3 32.7 30 37.5L29 37.5Q30 33 27.5 32L23.5 31L20.5 32Q18.8 28.3 17 31.5Q15 42.5 18.5 48zM40.5 44L41 42.5L40 42.5L40.5 44zM33.5 30L34 26Q30.7 27.3 32 22.5L31 22.5Q31.8 24.7 29.5 24L26.5 25L25 24.5Q23.9 27.8 26.5 27L28 26.5Q27.1 29.5 31.5 28L33.5 30zM34.5 25L36 24.5Q33.7 23.3 35 18.5L33.5 17L31 17.5L34.5 25z" />
    <glyph glyph-name="glyph0x1049"
      unicode="&#x1049;"
      horiz-adv-x="64" d="" />
    <glyph glyph-name="glyph0x104m"
      unicode="&#x0;"
      horiz-adv-x="64" d="M24 45L26.5 44L28.5 44L32 43.5L32 41.5L33 32Q36 33.2 35 29.5L35.5 28L32.5 26L30 27L29 21.5Q31.3 20.2 28.5 19L27 19.5L28 16.5L26 17.5L27 22.5L23.5 27L20.5 25L20 27L18 27Q19.1 29.7 16.5 29L18.5 32L21.5 29L22.5 30Q25.1 29.3 24 32L29 32Q27.8 29 31.5 30L31 31.5L29.5 35L28.5 33L26.5 37L23.5 33Q18.3 31.2 20 36.5L24 38L24 45zM32 39L32 38L32 39zM32 29L32 28L32 29z" />
    <glyph glyph-name="glyph0x1050"
      unicode="&#x1050;"
      horiz-adv-x="64" d="M18.5 48L23.5 47L25.5 47L27.5 48Q30 44.8 36 46L35 42.5L37 42Q36 45.8 38.5 47L41 46L40.5 29L39.5 32L36 29.5Q36.7 32.1 34 31L33.5 29L32 29.5Q30.9 26.2 33.5 27L35.5 24L36.5 27L39 19.5Q38.5 15.5 33.5 16L32 16.5L31.5 15L29.5 18Q27.3 18.7 28 16.5L27 16.5Q27.8 18.7 25.5 18L24 18.5L23.5 17L23 18.5L25 26L29.5 27L31 26.5L30 31L28 31L28 29L26 29Q27.1 26.3 24.5 27L21.5 26Q18.8 27.4 20 32Q16.2 33.5 17 30.5L16 30.5Q15 36.5 19 37.5L19 43L16 44.5Q14.9 47.8 17.5 47L18.5 48zM23 42L23 39Q20 38 25 36L27 37Q29 44 23 42zM32 42L32 41L32 42zM31 41L30 39L31 39L31 41zM36 40L34 36L36 35L36 40zM40 36L39 34L40 34L40 36z" />
    <glyph glyph-name="glyph0x1051"
      unicode="&#x1051;"
      horiz-adv-x="64" d="M23.5 48Q30 49.5 31.5 46Q32.8 48.2 34 45.5Q31.3 43.7 33 37.5L31.5 36L29.5 37L29 35.5L31.5 34L33.5 35L37 34L37 31L32 31L32 29L24.5 29L22 27.5Q24.8 24.7 31 26L31.5 19L32.5 27Q35.5 25.5 34 19.5Q32 14.2 24 16L23.5 23L22.5 16L20 20.5L20 22.5L21 28.5Q19 26.8 17 30.5L16 32.5L24 34L24.5 41L28.5 39Q31 40.2 30 44L26.5 45L24.5 44L22 45L23.5 48zM26 22L26 21L27 21L26 22z" />
    <glyph glyph-name="glyph0x1052"
      unicode="&#x1052;"
      horiz-adv-x="64" d="M21 49L31.5 47L33.5 47Q36.1 47.8 35 44.5L34 41Q31.3 42.1 32 39.5L35.5 32L37 32.5L31 28.5L30.5 27L29.5 29L28 28.5L27.5 30L26 27L30 26L31.5 18L32 26Q35.5 27.1 34 19.5L30.5 14L28 15L27.5 13L27 14.5L27.5 16L24.5 15L21 17.5L20 24.5L21 28L24 28.5Q18.6 27.6 17 30.5L17 32L20 32Q19 35 22 34L22 37L18 39.5Q16.8 43.2 20.5 42L21.5 43L28 43Q29.3 46.3 24.5 45L21 46L21 49zM30 44L32 42Q33 45 30 44zM30 39L30 37L32 38L30 39zM32 36L31 31L32 31L32 36zM26 35Q25 32 28 33Q29 36 26 35zM25 34L25 33L25 34zM25 28L25 27L25 28zM24 23L23 17L24 17L24 23zM28 23L27 21L28 21L28 23z" />
    <glyph glyph-name="glyph0x1053"
      unicode="&#x1053;"
      horiz-adv-x="64" d="M21.5 48L25 48Q23.9 44.7 28 46Q27 49 30 48L30 30.5L31 29.5L26.5 28L25.5 29L16 29L17.5 32L23 34.5L21.5 35L20 34.5L18 43.5L21.5 48zM25 38L25 37L26 37L25 38zM27 35L27 34L28 34L27 35zM35.5 48L38 38.5L37 37.5L37 31L32 31L32 33.5L35 42.5L34 46.5L35.5 48zM29.5 27L35 26Q36.8 17.5 31 15.5L31.5 14L25 15L24 20.5L25 23.5L23 22.5L22.5 17L22 23.5L23.5 26L25.5 26L29.5 27zM28 23L27 19L28 19L28 23zM32 22L32 21L32 22zM36.5 23L37 20.5L36 20.5L36.5 23z" />
    <glyph glyph-name="glyph0x1054"
      unicode="&#x1054;"
      horiz-adv-x="64" d="M23.5 48L30 46L31 42.5L30 37.5L31.5 33L33 42Q35.7 40.9 35 43.5L37.5 47L39 46.5L38 42.5Q40.5 41 37 39.5L37 30L33.5 30L32.5 31L25 31Q23.5 25.6 26.5 24L28.5 27Q34.6 28.2 34 25.5L35.5 21L36.5 23L38 18.5L36 18.5Q37.1 15.2 34.5 16L32.5 17L31 16.5Q31.8 19.1 28.5 18L26.5 18Q23.2 19.1 24 16.5L22 17.5L24 26L21.5 25L20 31L16 32L17.5 35Q21.3 33.7 20 37.5Q17.8 38.7 19 43.5L20 47L23.5 48zM23 44Q20 39 24 40L23 44zM24 39L21 38Q19 34 24 35L26 35L27 38L24 39zM31.5 41L31.5 40L31.5 41z" />
    <glyph glyph-name="glyph0x1055"
      unicode="&#x1055;"
      horiz-adv-x="64" d="M18 43L21 41.5Q20.3 37.7 22.5 37Q24.8 37.7 24 35.5L25 35.5Q24 39.2 27 38L27 41.5L28 41.5Q27.3 38.9 30 40L30 37.5L31.5 38L35 39Q33.1 44.6 38 43L39 35.5L37 26Q33.7 27.3 35 22.5L33 23.5L34 25.5L33 27.5L34 32L32 32L32 26L30 26L31 32.5L28 30.5L27.5 28L25.5 29L19.5 26L17 27L16 30.5L18 43zM30 34L30 33L30 34z" />
    <glyph glyph-name="glyph0x1056"
      unicode="&#x1056;"
      horiz-adv-x="64" d="M22.5 49L22.5 48L22.5 49zM24.5 48L29.5 48Q28.9 45.2 32 46L32.5 48Q35.5 46.5 34 40.5L33 37L29 36Q28 33 31 34L31 31.5L32 31.5Q30.7 36.3 34 35L35 30L26 27.5L31 24.5L31.5 20L32.5 25L33 19.5L30.5 15L29 15.5L29 22.5Q27.8 25.2 26.5 23Q21.3 21.7 20 24.5L21 28.5Q19 26.8 17 30.5Q15.5 34.9 18.5 34L20.5 34Q24.3 33.2 25 35.5L23.5 39L18 39.5L21 41Q19.9 43.7 22.5 43L27.5 42L30.5 43L32 42.5L31.5 45L27.5 44L25.5 45Q23.8 42.3 22 46.5L24.5 48zM25 29L24 26L25 26L25 29zM23 28L23 27L23 28zM36.5 33L36.5 32L36.5 33z" />
    <glyph glyph-name="glyph0x1057"
      unicode="&#x1057;"
      horiz-adv-x="64" d="M21 48Q25.2 48.8 26.5 45Q27.6 47.8 31 47L31.5 42L32.5 44L33 42.5L32 37.5L29 34.5L31 34L31.5 32L32.5 35L36.5 35L38 33.5L31 29.5L30 26.5L31 25.5L31 15Q26.9 16.7 28 12.5L27 12.5L27 15L22 15L22 16.5L20 20.5L21 22.5L20 26.5L21 29Q25.9 30.8 24 24.5L25 24.5Q26.3 29.7 23.5 31L17 31L17 34L28 35.5Q25.7 37.9 21 37L21 48zM27 41L27 40L27 41zM28 30L26 28L28 27L28 30zM29 27L29 26L29 27zM28 26L26 24L28 24L28 26zM24 22L23 18L24 18L24 22zM32.5 27L34 25.5L34 19L32 19.5L32.5 27z" />
    <glyph glyph-name="glyph0x1058"
      unicode="&#x1058;"
      horiz-adv-x="64" d="" />
    <glyph glyph-name="glyph0x1059"
      unicode="&#x1059;"
      horiz-adv-x="64" d="M26.5 44Q29.5 44.8 28 41L30 41L30 38.5L34 38.5Q32.7 33.7 36 35L37 44Q40.7 45.5 40 42.5L41 38.5L40 34.5L40.5 33L39 33.5L36.5 24L34.5 27L31.5 26L32.5 29Q29.9 28.2 31 31.5L29 30.5L28.5 26L27.5 28L23.5 26L22.5 29L21.5 27L20 27.5Q20.7 24.9 18 26L18 24L16 24L17 26.5L16 29.5L19 35.5L16 40.5L17 43L23 43L23 39.5L22 37.5L24.5 36L26 39Q22.3 37.8 24 43L26.5 44zM33.5 44L34 41.5L33 41.5L33.5 44zM39.5 26L39.5 25L39.5 26z" />
    <glyph glyph-name="glyph0x105m"
      unicode="&#x0;"
      horiz-adv-x="64" d="" />
    <glyph glyph-name="glyph0x1060"
      unicode="&#x1060;"
      horiz-adv-x="64" d="" />
    <glyph glyph-name="glyph0x1061"
      unicode="&#x1061;"
      horiz-adv-x="64" d="M28.5 48L33 44.5L32 39.5L33 37L28.5 35L23.5 39L22 38.5L21 43.5L24 45Q22.7 48.3 27.5 47L28.5 48zM27 44L25 42L28 40Q29 45 27 44zM29 44L30 41L32 42Q33 45 29 44zM24 43L24 42L24 43zM32 35L37 35L37 33.5L37.5 32L28 29L27.5 31L24 28.5Q26.3 26.1 31 27L31.5 29L32 25L30 24.5L31.5 20L32.5 23L34 18.5L32.5 16L29.5 17L24 16Q22.7 21.1 26 22.5L24 23Q25.1 26.3 21 25L21 27.5L24 29.5L16 31L16.5 34L26 34Q25 31 28 32Q26.8 35 30.5 34L32 33.5L32 35zM22.5 20L23 15.5L21 16.5L22.5 20z" />
    <glyph glyph-name="glyph0x1062"
      unicode="&#x1062;"
      horiz-adv-x="64" d="M23.5 48Q29 49 30 45.5Q28.5 39 32 37.5L31 32.5L32 32.5L33 42L36 43.5L37.5 46L39 39.5Q36.5 38 38 32.5L35.5 29L32.5 31L30.5 28L29.5 30L25 27.5L27.5 24L28.5 26L30.5 24L33.5 25Q36.5 25.9 35 21.5L36 21.5L36.5 23L38 18.5Q36.8 14.7 30.5 16L28.5 17L26.5 16L24 17.5L23.5 16L23 19.5L24 24.5L21 25.5L20 30Q14 28 16 34Q18.7 32.9 18 35.5Q21.5 37 19 38.5Q18.3 44.6 20 47L23.5 48zM24 38L23 35Q22 33 27 34L28 33L28 36L24 38zM31 32L30 30L31 30L31 32z" />
    <glyph glyph-name="glyph0x1063"
      unicode="&#x1063;"
      horiz-adv-x="64" d="M18.5 48L28 47L30.5 40L31.5 43L33 42.5L33.5 46L34.5 42L35 46L38.5 47Q41.5 46.5 41 42.5L39 42.5L38 36.5Q40.7 34.7 36.5 33L35 36.5L34.5 39L31.5 31L27.5 32L25.5 32L17 31L18 41.5L16 47L18.5 48zM24 43L21 37L22 35L25 41Q26 44 24 43zM28 43L27 39L28 39L28 43zM29 39L30 34L31 37Q32 40 29 39zM28 38L27 34L28 34L28 38zM40.5 41L41 38.5L40 38.5L40.5 41zM28 31L31.5 29L34.5 30L36 27L33 25.5L35 17L32 17Q33.7 11.8 30 13Q31.8 18.2 24.5 16Q22 17 23 21.5L24 21.5L24.5 17L25 23Q28.8 21.5 28 24.5L26.5 24Q23.9 23.2 25 26.5L22 27.5L22.5 29L28 29L28 31zM32 20L32 19L32 20zM28 19L28 18L28 19zM36.5 21Q38.8 21.7 38 19.5L36.5 21z" />
    <glyph glyph-name="glyph0x1064"
      unicode="&#x1064;"
      horiz-adv-x="64" d="M21.5 47L23.5 46L25.5 46L28.5 47L32 46L33 33.5L32.5 32Q36.9 33.5 36 30.5L37 28.5L34.5 28L30 25.5L29 20.5L29.5 19Q26.9 19.8 28 16.5L26 17.5Q26.6 24.8 24 28Q21 29 22 26L19.5 26L16 27.5L17 31L19.5 32L20.5 30L24.5 32L26 31.5Q26.8 33.7 24.5 33L20 34L21 41.5L20 45.5L21.5 47zM28 34L28 33L28 34zM31 32L31 28L32 28L31 32zM28 23L27 21L28 21L28 23zM23.5 24L24 19.5L23 19.5L23.5 24z" />
    <glyph glyph-name="glyph0x1065"
      unicode="&#x1065;"
      horiz-adv-x="64" d="" />
    <glyph glyph-name="glyph0x1066"
      unicode="&#x1066;"
      horiz-adv-x="64" d="" />
    <glyph glyph-name="glyph0x1067"
      unicode="&#x1067;"
      horiz-adv-x="64" d="M35.5 48L35.5 47L35.5 48zM36 46L38 45.5L38 38.5L36.5 33Q33.8 34.2 36 35.5L35.5 39L35 37Q30.9 38.7 32 34.5L29 35.5L27.5 33Q24.5 32.1 26 36.5L25 36.5Q26.5 32.1 23.5 33Q22.3 35.3 21 32.5L20.5 31L18.5 34Q15.8 33.4 17 39.5L19 44L24 45L22 40.5L24.5 37Q27.2 38.2 25 39.5Q22.9 45.4 27.5 44L30 43L30.5 40L34 41.5Q33.3 44.1 36 43L36 46zM23.5 29L24.5 25L26.5 28L28 27.5Q27.2 30.1 30.5 29L32.5 28L34.5 29L36.5 26Q33.5 26.5 35 19.5L29.5 16L27.5 16Q25.3 15.2 26 17.5L23.5 25L22 24.5L23.5 29zM28 25L26 23Q25 19 28 18L28 19L28 21L28 25zM29 24Q28 21 31 22Q32 25 29 24zM32 22L32 21L32 22zM36 23Q39.3 24.1 38 20Q34.7 18.9 36 23zM22.5 21L23 18.5L22 18.5L22.5 21z" />
    <glyph glyph-name="glyph0x1068"
      unicode="&#x1068;"
      horiz-adv-x="64" d="" />
    <glyph glyph-name="glyph0x1069"
      unicode="&#x1069;"
      horiz-adv-x="64" d="M24 48L27.5 47L30 48Q28.9 45.3 31.5 46L33 46.5L32.5 43L31.5 45L29 44Q27.9 40.7 32 42L32 39.5Q34.8 37.7 30.5 36Q27.9 36.7 29 34L35.5 36Q40 34 36.5 32L32 32L32 30Q29.3 31.1 30 28.5L29 26.5L31.5 20L32.5 27L34 24.5L34 22.5L35 19L31 17.5Q31.8 14.9 28.5 16L24.5 15L21 17.5L20 24.5L21 29Q24.8 30.5 24 27.5L25 27.5Q25.8 31.2 23.5 32L19.5 31L16 32L17.5 35Q25.5 37 27.5 33L28 37L25.5 37L21 40.5L22 46Q25 45 24 48zM25 45L25 42L28 41Q30 47 25 45zM24 44L23 42L24 42L24 44zM27 29L28 27Q29 30 27 29zM24 25L24 24L24 25zM24 23L23 18L24 18L24 23zM25 22Q24 18 27 19Q28 23 25 22z" />
    <glyph glyph-name="glyph0x106m"
      unicode="&#x0;"
      horiz-adv-x="64" d="M17.5 47L19.5 46L21.5 46L24.5 46Q23.7 42.7 29 44Q27.5 40.3 30.5 41L33 45L39.5 46Q42.5 44.5 41 38.5L39 36.5L38 31L36 31.5L36 40.5L34 39.5L33 32L30 33.5L29.5 36L27.5 32L25 33.5L25.5 36L27 35.5L25 38.5L24 38.5L24 32L21.5 32Q20 34.5 18.5 31L16 31.5L20 41.5L16 44.5L17.5 47zM24 41L24 40L24 41zM32.5 31Q35 30 34 25.5L32 22.5L35 17.5L31.5 20L30.5 19L24 17L25.5 23Q26.8 20.7 28 23.5L30 30L32.5 31zM33 30L33 29L33 30zM36.5 25L37 21.5L36 21.5L36.5 25z" />
    <glyph glyph-name="glyph0x1070"
      unicode="&#x1070;"
      horiz-adv-x="64" d="" />
    <glyph glyph-name="glyph0x1071"
      unicode="&#x1071;"
      horiz-adv-x="64" d="" />
    <glyph glyph-name="glyph0x1072"
      unicode="&#x1072;"
      horiz-adv-x="64" d="M38.5 44Q41.1 44.8 40 41.5L41 40.5L41 32L39 31.5L40 29.5L39 27.5L40 25.5L39 23Q36.3 21.9 37 24.5L36 26.5L36 28.5Q37.3 33.3 34 32L32.5 27L31 27.5Q31.7 24.5 28 26L27.5 28L25 27Q23.5 30.7 26.5 30L27.5 32L25 33.5L26 42L28 42Q26.5 38.2 29.5 39Q30.8 36.8 32 39.5L33.5 43L35 41.5L35.5 34L36 43L38.5 44zM38 42L38 41L39 41L38 42zM31 30L31 29L31 30zM17 43Q22.7 43.4 25 39.5L24.5 38L23.5 40L23 37.5L24 34.5L23 31.5L23.5 30L19 28.5L20 26L17.5 25L17 27.5Q20.3 31.4 19 39L16 40.5L17 43z" />
    <glyph glyph-name="glyph0x1073"
      unicode="&#x1073;"
      horiz-adv-x="64" d="" />
    <glyph glyph-name="glyph0x1074"
      unicode="&#x1074;"
      horiz-adv-x="64" d="" />
    <glyph glyph-name="glyph0x1075"
      unicode="&#x1075;"
      horiz-adv-x="64" d="M24.5 45Q31.3 45.9 34 44L32 35.5L35 34Q36.8 29.5 31.5 31Q30.3 33.3 29 30.5L31 27.5L31.5 26L28 27L27.5 32L22 31L22 28Q19.3 29.1 20 26.5L19 26.5L18 28.5L21 37.5L20 44L24.5 45zM26 41L26 38L28 39Q29 42 26 41zM26 37L26 36L26 37zM24.5 30L25 28.5L24 28.5L24.5 30zM21.5 25L26 24Q27.5 20.3 24.5 21L21.5 20L19.5 23L17.5 22L16.5 24L21.5 25zM29.5 25L29.5 24L29.5 25zM32.5 25L35 24L33.5 20Q30.8 21.2 32.5 25zM36 24L38 23.5L36.5 21L36 24zM27 23Q32.2 24.7 31 21Q25.8 19.3 27 23z" />
    <glyph glyph-name="glyph0x1076"
      unicode="&#x1076;"
      horiz-adv-x="64" d="" />
    <glyph glyph-name="glyph0x1077"
      unicode="&#x1077;"
      horiz-adv-x="64" d="M17 48L20.5 47L23.5 48L25 45L27.5 44Q28.8 46.2 30 43.5L29 37Q24.5 35.2 26 40.5L22 43L22 45Q19.3 43.9 20 46.5L17 45.5L17 48zM33 47Q35.7 48.1 35 45.5L36 45.5L36.5 47Q36.1 41 40 39.5L36 38.5L37 35.5L35.5 32L32 33Q30.9 42 33 47zM23.5 39L23.5 38L23.5 39zM20 37L25 37L25 33.5L21 32L20.5 30L19.5 32L18.5 30L17 34L20 35.5L20 37zM27.5 34L28 32.5L27 32.5L27.5 34zM31.5 31L35 29.5L34 20.5L35 17Q31.2 15.2 23.5 16Q20.8 17.2 22 22.5L24 22.5L21 28.5L25.5 29L28 28Q26.8 31 30.5 30L31.5 31zM25 28L24 26L25 26L25 28zM36.5 21L36.5 20L36.5 21z" />
    <glyph glyph-name="glyph0x1078"
      unicode="&#x1078;"
      horiz-adv-x="64" d="M22.5 49Q29.2 50.2 31.5 47L34 48L32.5 45Q29.5 45.8 31 42L34 40.5L33 36Q38.2 38.1 37 33.5L34.5 32Q32.7 34.7 31 30.5L31.5 29Q32.8 31.2 34 28.5L32.5 25L30 26L31 19.5L30 16Q33.3 17.1 32 13L28.5 14L27.5 11L27 13L22 15.5L21.5 17L21 15Q17.3 13.8 19 19L22 20.5Q20.9 23.8 23.5 23L25.5 23Q29.3 22 28 25Q22.3 24 20 27.5L20 30Q23 29 22 32Q17.4 30.7 16 33.5L16 35L20 35L20 37.5L19 41Q21.1 42.6 26.5 42L28 43.5L20 45Q21.3 48 17.5 47L17.5 48L22.5 49zM24 38L24 36L28 34L28 35L32 35L32 38L28 37L24 38zM22 37L22 36L22 37zM26 31L26 29L28 28Q29 32 26 31zM24 20L23 18L28 18L27 19L24 20zM32.5 23Q37.3 20.7 33 18.5L32.5 17L32.5 23z" />
    <glyph glyph-name="glyph0x1079"
      unicode="&#x1079;"
      horiz-adv-x="64" d="" />
    <glyph glyph-name="glyph0x107m"
      unicode="&#x0;"
      horiz-adv-x="64" d="M17 47L32 44Q30.9 46.7 33.5 46L36 45.5L36.5 42L38.5 46L41 44.5L41 37.5L37.5 32L34.5 38L32.5 31L30.5 32L28.5 31L26.5 32L24 30.5L23.5 32L21.5 31L20.5 34L18.5 31L16.5 30L16 33.5L19 40.5L16 43.5L17 44.5L17 47zM30 43L30 40Q28 39 31 38L32 41Q33 44 30 43zM23 42L23 39L26 39Q27 44 23 42zM25 39L25 38L25 39zM30 36L30 35L30 36zM32.5 30L35.5 26L36.5 28L37 24.5L36 22.5L37 20.5L35 20.5L34.5 17L33 20.5L34 23.5L32 24.5L31.5 23L27.5 25L25 23.5Q23.3 28.3 27.5 27L32 28L32.5 30z" />
    <glyph glyph-name="glyph0x1080"
      unicode="&#x1080;"
      horiz-adv-x="64" d="M34 48Q36.7 49.1 36 46.5L37 45.5L37 37.5L35 37.5L36 33.5L34 32.5L33 41.5L34 44.5L34 48zM36 46L36 45L36 46zM37.5 48L37.5 47L37.5 48zM21.5 46L27.5 43L30 44L29 34.5L27.5 32L23.5 43L23 38.5L26.5 29L30.5 29Q29.8 32 34 31L35.5 27L36.5 29L38 23.5L36 17Q30.4 19.2 32 13.5L29.5 15L27.5 14L21 17.5L20 22.5Q22.3 23.7 21 28.5L20 28.5L19.5 27L19 28.5L20 31Q22.7 32.1 22 29.5L24 28.5L23 34L20.5 33L18.5 36Q15.1 35.1 17 40.5L21.5 46zM28 26L26 23L28 23L28 26zM24 25L23 22L24 22L24 25zM36 25L35 21L36 21L36 25z" />
    <glyph glyph-name="glyph0x1081"
      unicode="&#x1081;"
      horiz-adv-x="64" d="M18.5 47Q20.8 47.7 20 45.5L21.5 46L25.5 45L28 46Q26.9 43.3 29.5 44L31 40.5L30 35.5L30 33.5L28.5 31L26.5 32L24.5 31L22 32Q23 35 20 34Q21.3 30.7 16.5 32L17 33.5L19 37.5L19 43Q16 41.7 17 45.5L18.5 47zM24 45L23 39L24 39L24 45zM26 41L24 37L26 38L26 41zM35.5 47L36 43L38 42.5L37 40.5L38 37.5L36.5 32L32 33.5L33 35.5L32 38.5L35 42.5L32 43L32 45Q35.8 43.7 35.5 47zM32.5 28L33 25.5L32.5 24Q37.1 25.4 35 19.5L32 18L31.5 16L26 19L25 23.5L26 26L32.5 28zM28 24L27 22L28 22L28 24zM31 23L31 20L33 21Q34 24 31 23zM36.5 24L37 22.5L36 22.5L36.5 24z" />
    <glyph glyph-name="glyph0x1082"
      unicode="&#x1082;"
      horiz-adv-x="64" d="M21.5 48L25 47L24 41.5Q25 39 29.5 40L32 41L32 39Q34.7 40.1 34 37.5L33 35.5L35 31L32 31Q33.5 27.3 30.5 28L28.5 28L24.5 29L21.5 28L16 30.5L17.5 33L19.5 32L25.5 35L27.5 34L24.5 38L21 37Q19.1 39.7 20 46.5L21.5 48zM32 37Q32 34 29 35L29 32L32 31L32 37zM36 33L38 32.5L36 31.5L36 33zM23.5 26L25.5 26Q30.3 26.7 31 23.5L31.5 20L32.5 24L33 20.5L32 18Q28.9 18.7 29.5 16L24 16L23.5 21L22.5 18L21 24Q23.8 23 23.5 26zM29 23L28 19L29 19L29 23z" />
    <glyph glyph-name="glyph0x1083"
      unicode="&#x1083;"
      horiz-adv-x="64" d="M21.5 49L23.5 48L26.5 49L31.5 47L37 48L36.5 45L35 45.5L34 43.5L35 39.5L33 36.5L35.5 35L37 35.5Q38.1 32.2 35.5 33L30 31L31.5 28Q33.8 28.7 33 26.5L34 24.5L33 21.5L34 18.5L32.5 16L31.5 27L29 23.5L31 23L30 15Q33 16 32 13L28.5 14L27.5 12L23 14L20 21L22 21Q20.9 23.7 23.5 23L26.5 24L28 24.5L23.5 25L21 24L20 29L27.5 29L28 31L20 32L19.5 30L19 32Q15.7 30.9 17 35L22.5 35L23 36.5L20.5 38Q19.2 35.7 18 38.5L19 44.5L17 48L21.5 49zM24 37L24 35L27 35L28 35L24 37zM32 37L31 35L32 35L32 37zM24 20L23 18L28 18L26 20L24 20zM36.5 41L37 39.5L36 39.5L36.5 41zM19.5 17L19.5 16L19.5 17z" />
    <glyph glyph-name="glyph0x1084"
      unicode="&#x1084;"
      horiz-adv-x="64" d="M17 48L23.5 47L25.5 48Q27 44.5 28.5 47Q31.5 47.9 30 43.5L28 42.5Q29.3 46.2 25.5 45L23.5 45Q20.9 45.8 22 42.5L21 36L23.5 35L30 36L28.5 32L24 31.5L27.5 29L28.5 31L29 29Q32.4 28.2 33.5 31L35.5 28L36.5 30L38 23.5L36 18L24.5 15L22 16Q23.1 18.7 20.5 18L19 17.5L20 20.5L19 23Q22.7 21.8 21 27L18 27.5Q18.5 30.5 22.5 30L24 29.5L22.5 32L17 33L17 39.5L16 40.5L17 41.5L17 48zM28 26L28 25L28 26zM24 20L23 18L24 18L24 20zM36 48L38 47.5L37 45.5L37 43.5L38 39.5L37 35.5L34.5 33L32 34L33 44.5L31 44.5L32.5 47Q35.8 48.1 35 45.5L36 45.5L36 48zM39.5 40Q41.8 40.7 41 38.5L39.5 40zM40.5 37L40.5 36L40.5 37zM18.5 26L20 25.5L18.5 25L18.5 26z" />
    <glyph glyph-name="glyph0x1085"
      unicode="&#x1085;"
      horiz-adv-x="64" d="M24.5 48L26.5 46Q28.5 50 30.5 46Q33.1 46.7 32 44Q29.3 45.1 30 42.5L33 37.5L29 36Q27.9 33.3 30.5 34L32 33.5Q31.3 35.7 33.5 35Q35.3 31.9 37 33.5Q38.1 30.2 35.5 31L32 30Q33.3 26.7 28.5 28L25 29Q23.7 25.7 28.5 27L31.5 25L32.5 27L34 24.5Q31.8 23.3 33 18.5L30.5 16Q27.5 15.5 29 22.5Q27.8 25.2 26.5 23Q19.5 21.5 20 24.5L21 27.5L18 28.5L16 31.5L22 34L21 45L24 46.5L24.5 48zM28 45L25 42L28 41L28 45zM24 39L24 38L24 39zM25 38Q23 33 28 32L28 35L25 38zM24 28L24 27L24 28zM32 24L31 20L32 20L32 24zM27.5 17L27.5 16L27.5 17z" />
    <glyph glyph-name="glyph0x1086"
      unicode="&#x1086;"
      horiz-adv-x="64" d="M17 46Q25.2 47.1 29 44Q30 41 27 42L27 37L25.5 37L24 37.5L25 35.5L24 33L30 34L30 40.5L31.5 41L33.5 45L34.5 41L35.5 45L36.5 42L37 46L41 43.5L40.5 37L39.5 39Q39.5 33 36.5 30Q33.5 31.6 35 37Q31.3 38.4 33 32.5L32 31.5Q33.5 24 31 20.5L34 21.5L32 16L28.5 18L28 16L25 17.5L24.5 21L23.5 17L23 24.5L24 24.5L24.5 22L25 26L27 25.5L27 18.5L28 18.5L28 24.5Q31 23.5 30 28.5L31 31.5L29 32.5Q29.8 30.2 27.5 31L23.5 30L20.5 27L19.5 30L17.5 27L16 40.5L17 46zM21 44Q20 39 24 38Q26 39 25 43L21 44zM40 41L40 40L40 41zM22 36L23 33L24 35L22 36zM36.5 28L38 22.5L36 21.5L36.5 28z" />
    <glyph glyph-name="glyph0x1087"
      unicode="&#x1087;"
      horiz-adv-x="64" d="M21 48L27.5 46L29.5 48Q31.3 44.9 33 46.5L32 36.5L30.5 35L29 34.5L31.5 33Q32.3 35.8 36.5 35Q39.5 33.5 36.5 32L29 29L30 23.5Q27.3 22.4 28 19L33 18.5L31 18Q32.8 13.5 27.5 15L24 16L23.5 21L22.5 17L21 18.5L21 28L24.5 27L25 30L21.5 31L19.5 31Q15.1 29.5 16 32.5L17.5 34L28 34L26.5 37L21 37L21 48zM27 44L27 43L28 43L27 44zM28 30L27 28L28 28L28 30zM27 24L25 20L27 21L27 24z" />
    <glyph glyph-name="glyph0x1088"
      unicode="&#x1088;"
      horiz-adv-x="64" d="M17.5 46L20.5 45L23.5 46L23.5 44Q27.9 42.5 27 45.5L32 42.5Q31 46.2 34 45L34.5 43L35.5 46L36.5 43L38.5 46L38 44.5L39 41.5L38 38.5L36.5 32L32.5 35L29.5 32L24.5 31L20.5 33L17.5 31L17 35.5Q20.5 37.2 19 43L16 44.5L17.5 46zM24 43L23 39L24 39L24 43zM34 43L33 41L34 41L34 43zM25 41L26 38L27 40L25 41zM30 40L30 38L32 39L30 40zM32.5 28L34 27.5L32 24.5L35 24L34 18Q31.3 19.1 32 16.5L30.5 17Q27.9 16.3 29 19L26 19L26 21.5L25 23.5L26 26L32.5 28zM28 23L28 22L28 23zM33 23L32 22Q29 23 30 20L33 21L33 23zM36.5 25L37 21.5L36 21.5L36.5 25z" />
    <glyph glyph-name="glyph0x1089"
      unicode="&#x1089;"
      horiz-adv-x="64" d="M21.5 49L23.5 48L26 49Q24.9 46.3 27.5 47Q28.8 49.3 30 46.5L29 38.5L31 35.5L29 32.5Q31 29 33 33.5Q32.4 39.6 35 42.5L34 44.5L35.5 44Q38.5 44.9 37 40.5L38 36.5L36 32.5Q38.8 30.8 34.5 29L32 30.5L30.5 28Q25 29.5 23.5 27L20.5 28L18.5 27L16 28Q15.4 32.6 19 34.5L19 36.5L18 42.5L21.5 49zM22 48L22 47L23 47L22 48zM28 45L28 44L28 45zM25 38L25 37L25 38zM20 34L19 32L23 32L20 34zM27 34L27 33L28 33L27 34zM31.5 27L32 25Q36.9 26.8 35 20.5L33 16L31 15.5L31.5 14L27.5 16L25 15L24.5 24L23.5 19L23 25Q28.5 24.2 31.5 27zM28 24L26 19L28 18L28 24zM32 22L31 20L32 20L32 22zM36.5 23L37 19.5L36 19.5L36.5 23z" />
    <glyph glyph-name="glyph0x108m"
      unicode="&#x0;"
      horiz-adv-x="64" d="M17 48L20 47.5L19.5 46L22.5 47L25 46L25 44L30 44L30 40L26 42L25 35.5L26 35.5L26.5 37L27.5 35L30 36L29 28.5L30.5 29Q35.9 30.9 35 27.5L36 24.5L35 21.5L36 21.5L36.5 23L37 20.5L36 17L33.5 16L32 16.5Q33 12.7 30 14Q31.3 17.3 26.5 16L24 16.5L23.5 21L22.5 17L20.5 20L19.5 16Q16.8 17.2 19 18.5L20 23L24 23L24 24.5L22.5 24L21 24L21 29L25 28.5L24 25.5L26 24.5L28 32L24.5 34L23.5 32L23 35Q20.3 36.1 21 33.5L18.5 30Q16 31 17 35.5L20 39.5L20 43.5L17 45L17 48zM24 43L24 42L24 43zM25 42L24 40L25 40L25 42zM33 47Q35.7 48.1 35 45.5L37 45.5L36 42.5L41 40L40.5 38L37 39L36.5 37L35 37.5L36 33L32 33L32 44.5L33 47zM19.5 29L20 27.5L19 27.5L19.5 29z" />
    <glyph glyph-name="glyph0x1090"
      unicode="&#x1090;"
      horiz-adv-x="64" d="M24.5 48L25.5 47L34 47Q35.1 44.3 32.5 45L30.5 44L28.5 44Q23.7 45.7 25 41.5L26.5 40Q31.9 40.6 34 39L32.5 36Q28.1 37.5 29 34.5L28 34.5Q28.9 37.5 24.5 36L22.5 36Q18.3 34.7 20 39.5L20 41.5Q17.4 48.8 23.5 47L24.5 48zM32 34L37 31.5L34.5 30L29.5 30L22.5 28L16 30.5L17.5 32L23.5 33L26.5 32L31.5 31L32 34zM22.5 26Q24.8 26.7 24 24.5L25 18L31 19Q32.7 14.9 28.5 16L24 15L23.5 23L22.5 16Q19.5 16.5 20 20.5L20 22.5L22.5 26z" />
    <glyph glyph-name="glyph0x1091"
      unicode="&#x1091;"
      horiz-adv-x="64" d="M17 47L20.5 45L23.5 46L30 45L30.5 38L33.5 46L34.5 44L35.5 46L36.5 41L38 46L41 46L41 37Q37.3 38.2 39 33L36 33Q37 36.8 34.5 38L33 32Q26.4 33.7 24.5 30L23.5 32L22 31.5L20.5 34L20 32L16.5 30L16 32.5L19 42Q16.3 40.9 17 43.5L17 45.5L17 47zM24 43L22 40L24 38L24 40L26 40Q28 39 27 41L24 43zM40 40L40 39L40 40zM23.5 29L24 26L27.5 25L28 28Q32.1 29.7 31 25.5L32.5 26Q36.3 24.7 35 28.5L36.5 28Q38.8 28.7 38 26.5L37 24.5L38 20.5L35 19.5Q36.3 15.7 32.5 17L31.5 16L25 16L24 22.5L25 24.5Q21.9 25.6 23.5 29zM32 22L31 20L32 20L32 22z" />
    <glyph glyph-name="glyph0x1092"
      unicode="&#x1092;"
      horiz-adv-x="64" d="" />
    <glyph glyph-name="glyph0x1093"
      unicode="&#x1093;"
      horiz-adv-x="64" d="M24.5 49L31 48L31.5 46L32.5 48L34 45.5L33 42Q29 43.4 31 36.5L30 34.5L32 33.5L32.5 40L34.5 36L38 34.5L32 33L32 30Q35 31.2 34 27.5Q37.5 26 36 19.5L32 18L32 13L30 13Q31.5 17.5 27 16L28 13.5L26 13Q27.1 15.7 24.5 15L23 15.5L24 13.5L22.5 13L17 16L19 24.5L18 27.5L17 35L25.5 36L27.5 35L25.5 38Q20.1 36.1 21 39.5Q18.5 41 20 46.5L24.5 49zM26 45L25 44Q22 45 23 41L25 42L28 41Q30 46 26 45zM24 40L24 39L24 40zM31 33L31 32L31 33zM21 32L22 30Q23 33 21 32zM27 29L27 23L28 23Q27 28 30 27Q31 30 27 29zM25 28L24 26L25 26L25 28zM23 20L23 18L25 19L28 18L28 20L23 20z" />
    <glyph glyph-name="glyph0x1094"
      unicode="&#x1094;"
      horiz-adv-x="64" d="M18.5 48L20 47.5L19.5 46Q21.8 45.2 21 47.5L22.5 47Q24.8 47.7 24 45.5L27.5 44Q28.8 46.2 30 43.5Q29.3 40.9 32 42L33.5 45L35.5 46L38 45Q36.1 40.7 37 33L31.5 32L29.5 32L24 34L23.5 32L21 33L20.5 31L18.5 31Q15.5 30.1 17 34.5L20 36L21 41.5L18.5 46L17.5 44L17 46.5L18.5 48zM30 41L29 39Q27 41 26 38L25 40L24 37L28 35L28 36L30 36L31 38L30 41zM40.5 45L41 43.5L40 43.5L40.5 45zM28 30L31.5 28L36 29Q34.9 26.3 37.5 27L36 24.5L38 22.5Q39 18.7 36 20L35.5 22L33.5 18Q30.9 18.7 32 16L29.5 16L27.5 16Q23.8 14.7 25 18.5L25 20.5L25 27.5L28 28L28 30zM36 27L36 26L36 27zM27 24L27 18L28 18Q29 25 27 24zM30 24L30 23L31 23L30 24zM32 22L32 21L32 22zM23.5 29L24 25.5L23 25.5L23.5 29zM22.5 23L23 20.5L22 20.5L22.5 23z" />
    <glyph glyph-name="glyph0x1095"
      unicode="&#x1095;"
      horiz-adv-x="64" d="M21.5 48Q28.9 49.4 31.5 46L32.5 48L35 46.5Q30.8 44.9 32 39Q35 40.2 34 36.5L32 36.5L31 33.5L32.5 34L37 31.5L36.5 29Q35 31.5 33.5 28L30.5 26Q28.5 28.8 24 28L23 16Q19.7 14.7 21 19.5L20 19.5L19.5 18L19 19.5L21 26Q23.7 24.9 23 27.5L21.5 27L16 29.5L24 33.5L20 36.5L19 38.5L21 39L22 42.5L20 46.5L21.5 48zM26 44L26 40L28 41Q29 45 26 44zM26 35L26 33L28 32Q29 36 26 35zM30 33L30 32L30 33zM31 30L31 29L32 29L31 30zM24.5 19L27.5 18L30.5 19Q33.5 17.5 30.5 16L28.5 15L26.5 15Q21.8 13.8 24.5 19zM31.5 15L31.5 14L31.5 15zM26.5 14L28 13.5L26.5 13L26.5 14z" />
    <glyph glyph-name="glyph0x1096"
      unicode="&#x1096;"
      horiz-adv-x="64" d="M36.5 48L36.5 47L36.5 48zM27.5 47L30 41.5Q27.2 39.5 28 35Q31 36 30 33L22.5 31L20.5 32L18 31L17 41.5L19 46Q22.3 47.3 21 42.5L23 39Q20 40.2 21 36.5L24 35L24 40.5L27.5 47zM33 46Q36 47.2 35 43.5L36 43.5L36.5 46L37 41L39 40.5L37 40Q38.5 34.6 35.5 33L32 34.5L33 46zM34 38L34 36L36 35Q37 39 34 38zM40.5 39L40.5 38L40.5 39zM27.5 29Q34.5 30.5 34 27.5L35 25.5L34 22.5L35 17L32.5 18L29.5 17L27 18.5L28 16.5L26.5 16L24 20.5L26 23.5L25 26L22.5 25L22 28L27.5 29zM36.5 27L36.5 26L36.5 27zM22.5 22L23 19.5L22 19.5L22.5 22zM36.5 22L36.5 21L36.5 22z" />
    <glyph glyph-name="glyph0x1097"
      unicode="&#x1097;"
      horiz-adv-x="64" d="" />
    <glyph glyph-name="glyph0x1098"
      unicode="&#x1098;"
      horiz-adv-x="64" d="M17.5 48L21.5 48L27 46L27 44Q31.1 45.3 30 42Q24.8 44.1 26 39.5L24 36.5L25 34.5Q23.5 31.5 22 34.5L21.5 36L20 32L16 31L17 36.5L19 38.5L19 44.5L17.5 44Q14.9 43.2 16 46.5L17.5 48zM25 42L25 41L25 42zM36.5 48L41 44.5L41 37.5L39 34Q36 35.2 37 31.5L36 31.5L35 37Q32 38.2 33 34.5L32 30Q36.1 31.7 35 27.5L33 24.5L33 22.5Q31.9 18.3 36 20Q34.9 22.7 37.5 22Q40.5 20.5 37.5 19Q36.3 21.2 35 18.5L33.5 16Q30.5 16.7 32 13L30 13L28.5 16Q26.5 12 24.5 16Q22.3 15.2 23 17.5Q26.4 20.1 25 27.5L23 27.5L24.5 30Q28.3 29.2 29 31.5L26 32Q24.3 36.1 28.5 35Q29.8 32.7 31 35.5L29 40.5L31 41L32 46Q36.8 44.3 36.5 48zM32 30L32 29L32 30zM28 25L26 23L28 23L28 25zM32 23L32 22L32 23zM32 20L31 18L32 18L32 20z" />
    <glyph glyph-name="glyph0x1099"
      unicode="&#x1099;"
      horiz-adv-x="64" d="M17 48L24.5 48L26 46.5L27.5 43L28 47Q31.3 48.3 30 43.5L28 36.5Q31 34 30.5 28L34 30L33 21Q35.7 22.1 35 19.5L32 15.5L32 13L29 14.5L28.5 16L27.5 13L24.5 19L23.5 16Q21 17 22 21.5L23.5 21Q26.1 20.2 25 23.5L26 27L23.5 26L22 29Q24.7 27.9 24 30.5L21.5 32L19.5 31Q15.8 32.2 17 38.5L20 45Q15.5 43.5 17 48zM22 44L24 40L25 42Q26 46 22 44zM28 40L28 39L28 40zM22 38L22 36Q25 37 27 34Q29 33 28 35L22 38zM26 31L25 28Q27 25 28 28Q29 32 26 31zM28 25L26 23L28 23L28 25zM28 20L27 18L28 18L28 20zM32 20L31 18L32 18L32 20zM34 47L38 45.5Q35.4 42.6 36 36.5L36 34.5L35.5 32L32 34.5Q30.9 37.8 33.5 37L33 38.5Q32.2 44.6 34 47zM37.5 21L38 19.5L37 19.5L37.5 21z" />
    <glyph glyph-name="glyph0x109m"
      unicode="&#x0;"
      horiz-adv-x="64" d="M17 48L27.5 48L28.5 47Q29.8 49.3 31 46.5Q31.8 44.2 29.5 45L27.5 45L23.5 44Q22.3 46.2 21 43.5L23 38.5L21 35L24.5 36L30 35Q31.1 32.3 28.5 33L25 31.5L27.5 28L28.5 31L29 29Q31.7 30.1 31 27.5L32 27.5L33.5 30L35.5 29L38 30L38 20.5L35.5 18L30 16.5L30.5 15L24 17.5L23.5 20L22.5 17L19 22.5L21 22.5L20.5 28L19 27.5L20 30.5Q16.2 31.2 17 36.5L18 38.5L17 39.5L17 48zM22 32L22 30L24 29Q25 33 22 32zM28 20L28 19L28 20zM35.5 48L39 47.5L36 38.5L37 33Q32.9 31.3 34 35.5L35 38Q31.3 39.5 32 36.5L31 36.5Q31.6 39.2 25.5 38L24 40.5L26.5 42L28.5 42Q30.8 42.7 30 40.5L33 40.5L34 44.5Q31.3 46.3 35.5 48zM19.5 19L20 16.5L19 16.5L19.5 19z" />
    <glyph glyph-name="glyph0x10my"
      unicode="&#x0;"
      horiz-adv-x="64" d="" />
    <glyph glyph-name="glyph0x1100"
      unicode="&#x1100;"
      horiz-adv-x="64" d="" />
    <glyph glyph-name="glyph0x1101"
      unicode="&#x1101;"
      horiz-adv-x="64" d="M18.5 48L22.5 47L24.5 47L27 45.5L27.5 44L28.5 46L29 38L26.5 37L24 38L23 35.5L27.5 33Q28.8 35.3 30 32.5L25 31L24.5 28L23.5 30L20.5 29L17 31.5L17 38.5Q20 39.5 19 44.5L17 44.5L18.5 48zM24 43L23 38L24 38L24 43zM35.5 48L38 44.5L36 32L33 33.5L34 37.5Q31.8 38.7 33 43.5L35.5 48zM33.5 30L35 19.5L32 18.5Q33 14.7 30 16L29 18.5L30 24L25 24L25 27Q29.3 26 28.5 29L32.5 29L33.5 30zM33 25L32 21L33 21L33 25zM36.5 28L37 26.5L36 26.5L36.5 28zM36.5 22L36.5 21L36.5 22z" />
    <glyph glyph-name="glyph0x1102"
      unicode="&#x1102;"
      horiz-adv-x="64" d="M36.5 46Q39.8 47.1 39 44.5L41 44.5L40.5 38L39.5 41Q40.2 33.8 36.5 31L35 34.5L36 38.5L34 39.5Q34.8 33.7 31.5 32L29.5 35L27 33.5L26.5 35L24.5 32L22.5 33L20.5 30L20 32L17 32L17 39.5L19.5 43L23.5 44L23 42.5L22 36.5Q23.5 33.5 25 36.5L24 40.5L28 43L29.5 40L33 42.5L33.5 44L34.5 42L36.5 46zM37 43L36 41L37 41L37 43zM40 43L40 42L40 43zM25 26L27 25.5L27 18.5L28 18.5Q26.1 23.9 29.5 23L30.5 26Q33.1 26.7 32 24L34 24L34 19L32 19Q33.5 15.2 30.5 16L28 17.5L27.5 15L24.5 20L23.5 17L23 20.5L23 22.5L23.5 24L25 23.5L25 26zM32 24L31 20L32 20L32 24zM36 24Q39.8 25.5 39 22.5L36 21L36 24z" />
    <glyph glyph-name="glyph0x1103"
      unicode="&#x1103;"
      horiz-adv-x="64" d="M24.5 49L37 47.5L33 45L33 36.5L35.5 36L37 32Q32.4 33.2 31 30.5L33 26L29 24.5L31 24L30 17.5L32 16.5Q30.5 24.1 34 23L32 13L28.5 14L27.5 12Q26.4 14.8 23 14L22 16.5L23 19L20 19.5L21 23L24.5 24L26.5 24Q28.8 23.2 28 25.5L26.5 25L21 25L21 27Q18.3 25.9 19 28.5L17 34Q20.7 32.5 20 35.5L23 36.5L22.5 38L17 38L17 41.5L19 44.5Q15.3 46.2 18.5 48Q23.3 46.7 24.5 49zM27 45L22 44L22 42L28 42Q29 46 27 45zM32 44L31 42L32 42L32 44zM24 38L24 35L26 36Q27 39 24 38zM32 38L31 35L32 35L32 38zM20 32Q18 27 24 29L24 30Q21 29 22 32L20 32zM26 31Q25 27 28 28Q29 32 26 31zM24 20L24 19L24 20zM26 20L24 18L27 18Q28 21 26 20zM19.5 17L19.5 16L19.5 17z" />
    <glyph glyph-name="glyph0x1104"
      unicode="&#x1104;"
      horiz-adv-x="64" d="M21.5 49L23.5 48L25.5 48L31.5 47L36 48L33 41.5L34.5 39Q31.9 39.7 33 37L37 34.5L35.5 32Q30.3 33.5 32 29Q34.7 30.1 34 27.5L36 24.5L35 21.5L36 18.5L32 17Q33.7 11.8 30 13Q31 16 28 15Q29.1 11.7 25 13L23.5 16L23 14.5L23.5 13L20.5 15L19 18.5Q21.5 20 18 21.5L20 24.5L17 25.5L19 26.5L19 28.5L19.5 30L25 29Q26.3 32 22.5 31L20.5 32L18.5 32L16 33.5L19.5 35Q24.8 33.7 26 36.5Q26.8 38.7 24.5 38L22.5 38L19.5 37L17 38L18 45.5L17 48L21.5 49zM22 44L24 41L26 42Q27 40 28 42L28 44L22 44zM32 37L29 35L31 35L32 34L32 37zM27 36L27 35L28 35L27 36zM27 31L27 27L26 24Q25 22 28 23L28 29L27 31zM24 25L23 23L24 23L24 25zM26 20Q25 17 29 18Q30 21 26 20z" />
    <glyph glyph-name="glyph0x1105"
      unicode="&#x1105;"
      horiz-adv-x="64" d="" />
    <glyph glyph-name="glyph0x1106"
      unicode="&#x1106;"
      horiz-adv-x="64" d="M18.5 48L22.5 47L24 47.5L25.5 45L26.5 47L30 46L29 35.5L30 32.5L23.5 30L21.5 30Q15.4 28.7 16 31.5Q20.5 35.2 19 44Q16 42.7 17 46.5L18.5 48zM24 43L22 41Q21 39 24 40Q25 37 22 38Q21 35 25 36L26 40Q27 44 24 43zM33 47Q35.7 48.1 35 45.5L37 45.5L36 42.5L41 38.5L39.5 38Q38.3 40.3 37 37.5L36 33L33.5 32L32 32.5L31.5 31L31 32.5L33 40L31 40.5Q34.5 42 32 43.5L33 47zM36 37L36 36L36 37zM28.5 30L31.5 29L34 30L35 23.5L33 20.5L34 18.5Q32.3 14.2 24.5 16Q21 17 22 22.5L23 22.5L23.5 18L24 25Q20.3 23.8 22 29L26.5 28L28.5 30z" />
    <glyph glyph-name="glyph0x1107"
      unicode="&#x1107;"
      horiz-adv-x="64" d="M18.5 48L18.5 47L18.5 48zM20.5 47Q25 47.5 25.5 44L29 44L28.5 40L26 41L25 35Q32.1 37.4 30 31L24.5 33L22.5 33Q19.5 33.8 21 30L18.5 30Q16.3 30.7 17 34.5L18 37Q21 35.7 20 39.5Q22.5 41 19 42.5Q19.7 45.1 17 44L17 46L20.5 47zM25 42L24 40L25 40L25 42zM34.5 47L35.5 45L37 45.5Q35.9 42.2 38.5 43L40 43.5L39 41L42 39.5L40.5 34L38.5 34L35.5 32L33.5 33L32 32.5L32 45.5L33.5 46L34.5 47zM28.5 30L31.5 28L34 29Q36.1 25.6 35 18L30 18L30 19.5L33 21L32.5 25L31.5 23L28.5 25L25 24.5L25 27Q29.3 25.5 28.5 30zM36.5 27L36.5 26L36.5 27zM23.5 26L23.5 25L23.5 26z" />
    <glyph glyph-name="glyph0x1108"
      unicode="&#x1108;"
      horiz-adv-x="64" d="M23.5 45L26 44L26 36.5L27.5 35L28 37Q33.2 39.1 32 34.5L32 32.5L31.5 27L31 33L26 33L26 31.5Q23.7 30.2 26.5 29L28.5 32L29 30.5L26 26L23.5 27L22 23.5L23.5 24L27 22.5L25.5 20L25 22L22.5 21L19 23.5L20 30L23 30.5L21 31L20.5 33L17 31L17 34.5L23.5 45zM24 39L23 36L24 36L24 39zM37.5 43L41 42L41 40Q38.3 41.1 39 38.5L41 38.5L40.5 28L39.5 31L39 27L41 26.5L37.5 26L35 27.5Q35.8 23.7 33.5 23L31 23.5L33 26.5L33 35.5L34.5 37Q37.9 36.1 36 41.5L37.5 43zM34.5 42L35 39.5L34 39.5L34.5 42zM31.5 39L31.5 38L31.5 39zM29 22Q32 23 31 20Q28 19 29 22z" />
    <glyph glyph-name="glyph0x1109"
      unicode="&#x1109;"
      horiz-adv-x="64" d="M18.5 48L19.5 47L30 47L31 43.5L29 34L27 33.5L30 32L32 26L28.5 28L24.5 28L21.5 27L18.5 28Q17.3 25.7 16 28.5L17 32L21.5 31L23 33.5L22 36L18.5 35L17 37.5L19 42.5L17 46.5L18.5 48zM24 42L22 40Q21 38 24 39L24 42zM25 42Q24 38 27 39Q28 43 25 42zM25 39L24 37L25 37L25 39zM32 47L36 47L36 45.5L38 41.5L38 39.5L37 29L34.5 28L33 29.5L32 37.5L33 40Q37 38.6 35 45.5L34 45.5Q34.7 42.9 32 44L32 47zM23.5 25L24 23.5L22 22.5L23.5 25zM25.5 24L25.5 23L25.5 24zM24.5 21L25 19.5L22.5 16L22 19.5L24 19.5L24.5 21zM28 21L32 18.5Q33.4 13.9 27.5 16Q26.2 13.7 25 16.5Q24.2 19.5 28 18L28 21zM31.5 15L31.5 14L31.5 15z" />
    <glyph glyph-name="glyph0x110m"
      unicode="&#x0;"
      horiz-adv-x="64" d="M18.5 48Q24.6 49.2 24 46.5L24 44.5L23.5 43L21 44L22.5 41Q25.8 39.9 25 42.5L28 43.5L28.5 47L30 40.5L28.5 35Q27.2 37.2 26 34.5L24 31.5L25 28L28 28Q26.9 30.7 29.5 30L31.5 29L34 30L34 20.5L35 18.5L32 17L31.5 13L28 15.5L27.5 13L25 16.5L24.5 28L24 24Q20.3 22.8 22 28Q25.3 26.9 24 31L19 32.5L21.5 36L18.5 35Q16.3 35.7 17 39.5L20 45Q16.2 43.5 17 46.5L18.5 48zM28 40L28 39L28 40zM28 25L26 23L28 23L28 25zM32 21L31 18L32 18L32 21zM34 47Q40.4 49.3 38 41.5L35.5 32L34 33.5Q35.5 39 33 40.5L35 43.5L34 47zM22 22L24 22L24 16L22 16L22 22z" />
    <glyph glyph-name="glyph0x1110"
      unicode="&#x1110;"
      horiz-adv-x="64" d="M24.5 48L27.5 47Q29 49.5 30.5 46L34 47L32 40.5L33 37Q30.3 38.1 31 35.5L30 30.5Q33.8 28.7 30.5 27L28.5 28L26.5 28L22 26.5L24 26L25 18L30.5 20L32 14.5L30.5 14L28 15L27.5 13L24 15L23.5 23Q24.4 17.6 21.5 16L20 23.5L21 28L17 29Q15.3 33.1 19.5 32L25 34L24.5 37L22.5 36L19 38.5L20 39.5L20 47L24.5 48zM23 44L23 40L26 40L29 41Q31 40 30 43L23 44zM32 34L36 33Q37.1 30.3 34.5 31Q33.3 28.7 32 31.5L32 34zM32.5 18L32.5 17L32.5 18z" />
    <glyph glyph-name="glyph0x1111"
      unicode="&#x1111;"
      horiz-adv-x="64" d="M17 43L22.5 42L24 42.5L21 38.5L20 30Q23.8 29.2 25 32.5L24 35.5L25 37.5L24 40L28 42L28 40Q30.7 41.1 30 38.5L29 34Q24.1 35.8 26 29.5L27 27.5L24 25.5Q24.8 28.1 21.5 27L19 26L18.5 23L16.5 26L18 26.5L16 27L17 38.5L17 40.5L17 43zM28 40L27 35L28 35L28 40zM21 29L21 28L21 29zM37.5 41L40 40.5Q39.4 35.1 41 33Q37.7 34.3 39 29.5L37.5 24L34 32.5L37.5 41zM31.5 40L33 35.5L31.5 32L30 35.5L31.5 40zM40.5 31L40.5 30L40.5 31zM31.5 29L32 25.5L31 25.5L31.5 29zM40.5 26L40.5 25L40.5 26z" />
    <glyph glyph-name="glyph0x1112"
      unicode="&#x1112;"
      horiz-adv-x="64" d="M22.5 46L28 44L29 33.5L26 32.5Q24.8 28.7 28.5 30L25.5 26Q21.8 27 23 24L27 22.5Q27.8 20.2 25.5 21L23.5 21L19.5 23L17 22L17 24L21 24L21 25.5L17 38.5L17 40.5L18 44L20.5 43L22.5 46zM24 39L23 37L24 37L24 39zM33.5 45L34 43.5L33 43.5L33.5 45zM37 43L40 41.5L39 37.5Q41.6 36.1 41 31.5L39 31.5Q40.3 26.2 37.5 25L35.5 28L33.5 23Q30.9 22.2 32 25.5L31 27.5L33 27.5L33.5 38L36 37L37 43zM40 35L40 34L40 35zM34.5 42L34.5 41L34.5 42zM31.5 39L32 37.5L31 37.5L31.5 39zM31.5 36L32 29.5L31 29.5L31.5 36zM30.5 24L31 20.5L29 21.5L30.5 24z" />
    <glyph glyph-name="glyph0x1113"
      unicode="&#x1113;"
      horiz-adv-x="64" d="M23.5 49L26.5 48L28.5 48L35 47L34 43.5L36 39.5L30 37Q28.5 32.5 33 34Q31.8 37 35.5 36L37 32Q32.4 33.2 31 30.5Q31.8 28.2 29.5 29L29.5 28L31.5 27L33.5 30Q37.4 26.2 36 18L32 16.5L30.5 13L30 14.5L30.5 16L28 16Q29.3 11.9 26 13Q27 16 24 15L23.5 13L17 17.5L18 21.5L18 23.5L19 31L16 32.5L17.5 35Q22.2 36.2 23.5 34L27 36Q28.3 39 24.5 38L21.5 39L18.5 37L17 39.5L23.5 49zM28 48L28 47L28 48zM28 46L26 44L28 43L28 46zM24 43L24 42L24 43zM24 31L24 30L24 31zM28 30L27 24L28 24L28 30zM24 25L23 23L24 23L24 25zM24 22L23 18L28 18Q29 22 24 20L24 22z" />
    <glyph glyph-name="glyph0x1114"
      unicode="&#x1114;"
      horiz-adv-x="64" d="M18.5 48L29.5 48L31.5 47L36 48Q37.5 44.3 34.5 45L32 41.5L35 40Q36.5 36.3 33.5 37L30.5 36L29 35.5L31.5 34L34.5 36L38 33.5Q38.8 31.2 36.5 32L34.5 31L32 32Q33.5 28.2 30.5 29Q27.3 27.2 31 25.5L31.5 22L32 26Q35.5 27.1 34 19.5L30.5 15Q27.8 14.4 29 20.5Q31.3 21.7 28.5 23L21.5 22Q18.8 23.2 21 24.5Q19.5 28.9 22.5 28L24.5 28L28 27L26.5 30L20.5 31L18.5 30L16 31.5L20 33Q21 36.8 18.5 38Q16.3 37.2 17 39.5L18 41.5L18 43.5L17 46.5L18.5 48zM25 44L23 40L24 40L24 42L28 42Q29 45 25 44zM24 37L24 34L27 33Q29 32 28 36L24 37z" />
    <glyph glyph-name="glyph0x1115"
      unicode="&#x1115;"
      horiz-adv-x="64" d="M21.5 49Q23 45.5 24.5 48Q27.3 48.6 26 42.5L27.5 40L33 42L33 45Q37.1 43.3 36 47.5L37.5 47L41 44.5L41 38.5Q38 39.5 39 34.5L36.5 31L34 34.5L34 36.5Q34.8 38.7 32.5 38L33 36.5L32 30L35 28.5L34 20.5L35 16.5L32 15.5L30.5 13L30 16L27.5 15Q23.5 16.5 25 23.5L25 25.5Q23.3 30.3 27.5 29L31 30.5L29.5 40Q28.3 37.2 24 37.5L27.5 33L28.5 37L29 32L24.5 33L20.5 31L17.5 30L17 33.5L19.5 37L21 37.5L19 38L16 44.5L18 45.5L18.5 44L19 46L21 46.5L19 47.5L21.5 49zM21 45L21 44L21 45zM37 45L36 43L37 43L37 45zM35 44L35 43L35 44zM40 43L40 42L40 43zM40 41L39 39L40 39L40 41zM33 40L33 39L33 40zM28 25L26 23L28 23L28 25zM32 20L32 19L32 20zM28 19L28 18L28 19zM23.5 29L24 27.5L23 27.5L23.5 29zM36.5 27L36.5 26L36.5 27zM35.5 25Q38.8 24.2 38 19.5L37 19.5L35.5 25zM23.5 22L24 20.5L23 20.5L23.5 22zM23.5 19L24 16.5L23 16.5L23.5 19zM36.5 18L36.5 17L36.5 18z" />
    <glyph glyph-name="glyph0x1116"
      unicode="&#x1116;"
      horiz-adv-x="64" d="M21 49L31.5 47L33.5 47Q36.5 47.9 35 43.5L34 41Q31.3 42.1 32 39.5L35.5 34L38 32.5L32 30L34 24.5L33 22.5L34 19.5Q30.4 18.1 30.5 13L30 15Q27 16.2 28 12.5L26 13.5Q26.8 15.7 24.5 15L21 16.5L21 18Q17.2 16.5 18 19.5L19.5 22L21 21.5L20 26.5L21 28.5L16 31.5L17 34L22 34L22 36.5L18 39.5Q16.8 43.2 20.5 42L21.5 43L28 43Q29.3 46.3 24.5 45L21 46L21 49zM30 45L30 42L32 41Q33 46 30 45zM32 38L31 36L32 36L32 38zM27 35L27 34L28 34L27 35zM32 35L31 32L32 32L32 35zM26 30L26 26L28 23L29 26L28 28Q29 31 26 30zM25 29L24 27L25 27L25 29zM32 27L30 25Q32 24 31 19L32 19L32 27zM24 25L23 18L24 18L24 25zM28 20L27 18L28 18L28 20zM18.5 17L20 16.5L18.5 16L18.5 17z" />
    <glyph glyph-name="glyph0x1117"
      unicode="&#x1117;"
      horiz-adv-x="64" d="M23.5 48Q29.7 49.7 31.5 47Q32.8 49.3 34 46.5L34 37.5L32.5 36Q30.3 36.7 31 34.5L32.5 35Q35.1 35.7 34 33L37 33L37 30L33.5 29L32 29.5L29 25.5L29 22.5Q31.8 21.7 31 17.5L28.5 19L26.5 17L20 15L22 21L24 21L24 25L25.5 25L28 26L27.5 30L23.5 28L16 30L17.5 33L22 34Q20.3 39.2 24 38L24.5 36L26 37.5L24.5 40L26.5 39L30 41.5Q30.8 43.7 28.5 43L22 45.5L23.5 48zM21.5 41L21.5 40L21.5 41zM32.5 18L34 17.5L32.5 17L32.5 18z" />
    <glyph glyph-name="glyph0x1118"
      unicode="&#x1118;"
      horiz-adv-x="64" d="" />
    <glyph glyph-name="glyph0x1119"
      unicode="&#x1119;"
      horiz-adv-x="64" d="" />
    <glyph glyph-name="glyph0x111m"
      unicode="&#x0;"
      horiz-adv-x="64" d="" />
    <glyph glyph-name="glyph0x1120"
      unicode="&#x1120;"
      horiz-adv-x="64" d="M21.5 48L23.5 47Q24.8 49.3 26 46.5L24 42.5L29.5 40L32 41L33 36L38 33.5Q36.6 30.7 32 32Q33.1 29.3 30.5 30L29 27.5L31 24.5Q29.6 21.7 25 23L26.5 20L28 20.5Q27.1 17.5 31.5 19L33 19.5Q33.7 16.9 31 18L31 16L24 16L23.5 22L22.5 16L20 23.5L22.5 29L24.5 28L25 29.5L23.5 31L16 31L17.5 35Q25.5 37 27.5 33L28 35.5Q26 38.8 21 38L20 43.5L21.5 48zM32 37L31 36Q28 37 29 34L32 33L32 37zM28 30L27 28L28 28L28 30zM29.5 47L32 45.5L30.5 45L29.5 47zM19.5 18L19.5 17L19.5 18z" />
    <glyph glyph-name="glyph0x1121"
      unicode="&#x1121;"
      horiz-adv-x="64" d="M24.5 49L26.5 48L30 48.5L31.5 46L32.5 48L35 47Q36.3 44 32.5 45L33 43.5L32.5 42L31 42.5L32 39L34 39L34 34Q38.5 35.5 37 31L32 28.5L31.5 26Q29.8 29.1 28 27.5Q29 31.2 26 30L27 25.5L25 26.5L24.5 28L24 25.5L25 23.5Q21.5 21.8 23 16L21 16Q22.1 18.7 19.5 18Q16.8 19.3 19 20.5L22 28.5L17 30Q14.9 35.2 19.5 34L21.5 34L23 34.5L20 36L20 42.5L21 43.5L20 46.5L24.5 49zM32 37L32 33L32 34Q34 36 32 37zM24 36L24 34L28 34L24 36zM28.5 26L30 23.5L28 24.5L28.5 26zM24 19L26.5 18L30.5 19L33 17.5L28.5 15L26.5 15L24 16.5L24 19zM19.5 17L19.5 16L19.5 17zM27.5 14L27.5 13L27.5 14zM31.5 14L31.5 13L31.5 14z" />
    <glyph glyph-name="glyph0x1122"
      unicode="&#x1122;"
      horiz-adv-x="64" d="M21 48L26.5 47L30 48Q29 45 32 46L32.5 48L34 45.5L32 40.5L33 37.5L29 34.5L31.5 34L35.5 36L38 35L36.5 32L32 33L32 30Q29.3 31.1 30 28.5L30 26.5L31.5 19L32.5 27Q35.1 24.5 34 19L31 17.5L31.5 16L24.5 15L20 21.5L20 24.5L21 29Q24.8 30.5 24 27.5L25 27.5Q26.5 31.9 23.5 31L20.5 32L17.5 31L16 33.5L18.5 35L20.5 35Q25.9 35.6 28 34L28 36Q23.9 34.7 25 38L21 38L21 40.5L20 43.5L21 48zM26 45L23 41L26 41L29 42Q31 41 30 44L26 45zM28 30L27 27L28 27L28 30zM24 23L23 18L24 18L24 23zM25 22L27 19L28 21L25 22z" />
    <glyph glyph-name="glyph0x1123"
      unicode="&#x1123;"
      horiz-adv-x="64" d="" />
    <glyph glyph-name="glyph0x1124"
      unicode="&#x1124;"
      horiz-adv-x="64" d="" />
    <glyph glyph-name="glyph0x1125"
      unicode="&#x1125;"
      horiz-adv-x="64" d="M21.5 48L28.5 48L34 46.5Q30.7 45 32 40Q35.3 41.1 34 37L29 35.5L32 27.5L30.5 27L28.5 27L24.5 28L22.5 28L20.5 27L16 29L17 34Q20 35 19 32L22.5 32Q24.2 29.2 26 33.5L27 36.5Q25.3 39.7 23.5 36Q20.2 37.1 21 34.5L20 34.5Q19 39 21.5 40L24 41.5Q25.3 45.2 21.5 44L20 46.5L21.5 48zM26 44Q26 40 28 43L26 44zM28 35L28 34L28 35zM32 33Q35.8 34 37 31.5Q37.8 29.2 35.5 30L32 29L32 33zM23.5 26L25 23.5L25 21.5L25 19L31 19L31 16.5L32 13L30 13.5L31 15.5L29.5 15L24 15L24 21.5L23 21.5Q25 14.6 21 16L20 23.5L23.5 26zM27.5 14L27.5 13L27.5 14z" />
    <glyph glyph-name="glyph0x1126"
      unicode="&#x1126;"
      horiz-adv-x="64" d="M23.5 49L30 48L30.5 46Q32 49.5 33.5 47Q36.1 47.7 35 45L32 44.5L33 42.5L32 39Q35 40.2 34 36.5L38 34Q39.1 31.3 36.5 32L32 31Q33.1 27.7 29 29L29 26.5L32 16L22 17L21 20.5L22.5 24L24 23.5L25 28.5L23.5 31L18.5 30L16 31.5L17 34L23 34L23 36L20 36.5L20 48L23.5 49zM30 44Q29 41 32 42Q33 45 30 44zM26 36L24 34L27 34L28 33Q29 37 26 36zM32 36L29 34L31 34L32 33L32 36zM26 21L27 19Q28 22 26 21z" />
    <glyph glyph-name="glyph0x1127"
      unicode="&#x1127;"
      horiz-adv-x="64" d="M17 48L24 47L24 44Q21.3 45.1 22 42.5L20 35Q23.8 34.2 25 37.5L26 39.5L26 41.5Q25.3 46.2 27.5 48L28 45L30 44.5L30 36.5L26.5 31L20.5 33L18.5 32L17 33.5Q18.2 38.2 16 39.5L17 40.5L17 48zM35.5 48L36 46Q39.7 47.4 38 41.5L36 34Q33 33 34 36Q37 35 36 38L32.5 36L31 40.5L35.5 48zM36 46L36 45L36 46zM28.5 31L30 28L32 28Q30.5 31.8 33.5 31L35 28.5L33 24.5L33 22.5L33 20Q35.7 21.1 35 18.5L32 14L28 16L27.5 14L25 16.5L24.5 27L24 25Q20.3 23.8 22 29L26 30Q25 27 28 28L28.5 31zM28 25L26 23L28 23L28 25zM32 20L31 18L32 18L32 20zM27 19L27 18L28 18L27 19zM22 22Q26 23.4 24 16.5L23 16.5L22 22zM37.5 21L39 20.5L36.5 19L37.5 21zM36.5 18L36.5 17L36.5 18z" />
    <glyph glyph-name="glyph0x1128"
      unicode="&#x1128;"
      horiz-adv-x="64" d="M18 47Q21 48.2 20 44.5L23 39.5L20 37.5Q18.7 33.3 23.5 35L25 38.5L24 39.5L27 42.5L28.5 45Q30.8 44.2 30 40.5L28 35Q30.7 36.1 30 33.5L28.5 32L22.5 31L20.5 32L18.5 31L17 32.5L17 42.5L18 47zM34 46Q38.1 47.7 37 43.5L37 41.5L36 36.5L37 33L33 33L33 41.5L34 46zM28.5 29L31.5 28L34 29L35 19.5L31.5 17L26 16L24 21.5L25 28Q27.7 29.1 27 26.5L28 26.5L28.5 29zM28 25L26 23Q25 20 28 21L28 25zM30 25L30 22Q33 23 30 25zM32 22L32 21L32 22zM27 20L28 18Q29 21 27 20zM23.5 27L24 24.5L22.5 19L22 23.5L23.5 27zM36 23Q39.3 24.1 38 20Q34.7 18.9 36 23z" />
    <glyph glyph-name="glyph0x1129"
      unicode="&#x1129;"
      horiz-adv-x="64" d="M18.5 43L23 42Q19.7 37.9 21 29L24.5 30L25 28Q20.9 29.3 22 26L18.5 26L17 25.5L16 28.5L17 29.5L17 41.5L18.5 43zM37.5 43Q39.8 43.7 39 41.5L40 41.5L40.5 43L41 40.5Q37.6 35.4 39 25.5L36.5 23L35 35.5Q37.3 36.7 36 41.5L37.5 43zM26.5 42L27 40.5L27 38.5L27.5 36L28.5 40L29 36.5L26.5 33Q23.7 34.2 26 35.5L24 39.5L26 40L26.5 42zM31.5 42L34 33.5L31.5 25L30 26.5L30 39.5L31.5 42zM33.5 41L33.5 40L33.5 41zM28.5 33L29 31.5L28 31.5L28.5 33zM27.5 30L28 28.5L27 28.5L27.5 30z" />
    <glyph glyph-name="glyph0x112m"
      unicode="&#x0;"
      horiz-adv-x="64" d="M35.5 48L35.5 47L35.5 48zM19.5 46L21.5 46Q25.9 47.5 25 44.5L25.5 43L23.5 44L23 38.5L24 38.5L24.5 41L27 40L28.5 44Q31.3 44.6 30 38.5L31 32L22.5 31L21 33.5L23 36.5L21.5 36L20 36Q21.5 32.3 18.5 33L16 31.5Q15.4 37.6 19 39.5L19.5 46zM37.5 46L39 40.5L36.5 32L34.5 33Q33.3 30.7 32 33.5L32 37.5L35.5 45L37 44.5L37.5 46zM29.5 30L33 27.5L33 20.5L35 16.5L34 16.5L32.5 19L26 18Q27.3 15 23.5 16L24 17.5L24 20.5L26 24Q29.7 22.6 28 28.5L29.5 30zM32 23L31 21L32 21L32 23z" />
    <glyph glyph-name="glyph0x1130"
      unicode="&#x1130;"
      horiz-adv-x="64" d="M18.5 48L20.5 47L22.5 47Q25.8 48.1 25 45.5L22.5 44L21 44.5Q23.8 42.8 23 37.5L22 34L24.5 35L26.5 35L30 34Q31.1 31.3 28.5 32L26.5 31L24.5 31L22.5 32L17 31L18 40.5Q15.7 41.8 17 46.5L18.5 48zM34.5 47L35.5 45L37 45.5L37 43Q39.7 44.1 39 41.5L41 38.5L39 33L34.5 32L32 32.5L31 38.5L34.5 47zM38 38L38 37L38 38zM25.5 43L28 42.5L27 38L24 39.5L25.5 43zM31.5 29Q35.3 26.7 34 19.5L31.5 16L27.5 19L25 19L25 26L28 26Q26.8 29 30.5 28L31.5 29zM28 24Q27 21 30 22Q31 25 28 24zM32 22L31 20L32 20L32 22zM36.5 24L38 21Q34.5 19.9 36.5 24z" />
    <glyph glyph-name="glyph0x1131"
      unicode="&#x1131;"
      horiz-adv-x="64" d="M17 48L27 45L27.5 47L28 44Q31.7 45.5 31 42.5L32 42.5L33.5 45Q35.8 44.2 35 46.5Q36.5 49.5 38 46.5L37 33L29.5 34L27.5 32L18.5 31L17 32.5L16 39.5L17 40.5L17 48zM23 45L20 38L22 35L24 35Q23 38 26 37L26 40L23 45zM30 39L29 36L30 36L30 39zM40.5 41L41 38.5L40 38.5L40.5 41zM28 29L34 28.5L32.5 25L31 25.5L33 20Q36.3 21.1 35 17L32 18.5L31.5 21Q28.8 16.4 23 17L25.5 24L28 23L28 29z" />
    <glyph glyph-name="glyph0x1132"
      unicode="&#x1132;"
      horiz-adv-x="64" d="" />
    <glyph glyph-name="glyph0x1133"
      unicode="&#x1133;"
      horiz-adv-x="64" d="" />
    <glyph glyph-name="glyph0x1134"
      unicode="&#x1134;"
      horiz-adv-x="64" d="M17 48L19.5 47L20.5 48L28.5 48L31.5 47L36 48Q37.5 44.3 34.5 45Q32 43.8 33 40Q35.7 41.1 35 38.5L29 36L29 34Q31.7 35.1 31 32.5L32 32.5Q31.2 35.1 34.5 34L37 33Q38.1 30.3 35.5 31L24 27.5L27.5 26L30 26.5L30.5 28L31.5 20L32.5 25L34 22.5L30.5 15Q27.8 14.4 29 20.5Q31.7 22.3 27.5 24L26.5 22L23.5 23L20 22L21 28.5Q19 26.8 17 30.5Q16.1 33.5 20.5 32L22.5 33Q24.2 30.3 26 34.5Q26.5 38.5 23.5 39L20 38Q21.1 34.7 17 36L17 39Q19.7 37.9 19 40.5L21 43.5L17 45L17 48zM26 44L28 42Q29 45 26 44zM36.5 38L36.5 37L36.5 38zM27.5 21L27.5 20L27.5 21z" />
    <glyph glyph-name="glyph0x1135"
      unicode="&#x1135;"
      horiz-adv-x="64" d="M23.5 44L24.5 41L28 43Q27 40 30 41L30 38.5Q27.8 37.2 29 32.5L25.5 25Q22.9 24.2 24 27.5L23 27.5L21.5 24L18 26L19 23.5Q17.5 20.5 16 23.5L16.5 26L18 26.5L18 28.5L19 36.5L18 39Q15.3 37.9 16 40.5L20.5 43L23 42L23.5 44zM24 40L22 34Q21 31 24 32L24 40zM33 44L35 44L35 37.5L37 37L37 35.5L38 35.5Q37.3 38.1 40 37L39 33Q36.3 34.1 37 31.5Q34 28.2 35 22Q30.5 20.2 32 25.5L33 28.5L32 28.5L31.5 27L31 28.5L33 32L31 32L31 38L33 38L33 44zM38.5 32L38.5 31L38.5 32zM28.5 28Q31.3 26.7 29 25.5L28.5 24L28.5 28z" />
    <glyph glyph-name="glyph0x1136"
      unicode="&#x1136;"
      horiz-adv-x="64" d="" />
    <glyph glyph-name="glyph0x1137"
      unicode="&#x1137;"
      horiz-adv-x="64" d="M17 48L20 47.5L19.5 46L23.5 47L27 42.5L27 39Q24 40.2 25 36.5L30 33.5L28.5 31L24.5 34L23.5 32L21.5 33L17 31Q16.1 36.4 20 38.5L20 44Q15.1 42.4 17 48zM33.5 46Q35.8 46.7 35 44.5L36 44.5L36.5 46L39 40L41 39.5L38 38L36 33L32.5 32L32 44.5L33.5 46zM36 43L36 42L36 43zM36 38L35 36L36 36L36 38zM28.5 44L30 41Q26.5 39.9 28.5 44zM39.5 37L39.5 36L39.5 37zM30 29L34 26.5L35 23.5L34 21.5L35 19L29.5 17L25 19L25 25.5L26.5 27Q31.3 25.7 30 29zM32 23L31 20L32 20L32 23z" />
    <glyph glyph-name="glyph0x1138"
      unicode="&#x1138;"
      horiz-adv-x="64" d="M21 47L26 46L25 43.5L27 40.5L25 37.5L26.5 37L28 37.5L29.5 34L31 38.5L28 39.5Q27 43.2 30 42L30.5 40L33 40.5Q32.3 42.7 34.5 42L37 43L37.5 45L38 39.5L37 36.5L38 34.5L36.5 31Q34.6 34.6 30 34Q31.7 28.8 28 30L27.5 36L27 32L21 32L21 29.5L20 29.5L19.5 31L17 29.5L17 32.5L21 37.5L17 40.5L19.5 44L20.5 42L22 44.5L21 47zM34 36L34 35L34 36zM40.5 44L41 42.5L40 42.5L40.5 44zM25 26L27 25.5L27 18.5L28 16L25 17.5L24.5 19L22 17.5L24 22.5L23.5 24L25 23.5L25 26zM29.5 26Q34.1 27.4 32 21.5Q29.3 19.7 33.5 18L35 17.5L30.5 16Q27 18 28 24.5L29.5 26zM38.5 25L38.5 24L38.5 25zM36.5 24L37 22.5L36 22.5L36.5 24z" />
    <glyph glyph-name="glyph0x1139"
      unicode="&#x1139;"
      horiz-adv-x="64" d="M22.5 48Q24.8 48.7 24 46.5L24.5 44Q29.9 45.9 29 42.5L30 40.5L24.5 31L21.5 30L21 31.5L22 34.5L20 34.5Q20.7 37.5 17 36L17 40L21.5 42L23 41.5L22.5 44L21 43.5L21.5 45Q16.7 43.7 18 47L20.5 46L22.5 48zM25 42L24 40L25 40L25 42zM34.5 47L35.5 43L36.5 46L37 42Q39.7 43.1 39 40.5L36 33L32 33L32 40.5L34.5 47zM36 37L35 35L36 35L36 37zM17.5 32L17.5 31L17.5 32zM31.5 29L32.5 26L34 26.5L35 22.5L31.5 17Q27.5 16.5 27 19.5Q27.7 22.1 25 21L25 23.5L26 26L31 27L31.5 29zM28 24L27 22L28 22L28 24zM32 23L31 20L32 20L32 23zM26.5 17L26.5 16L26.5 17z" />
    <glyph glyph-name="glyph0x113m"
      unicode="&#x0;"
      horiz-adv-x="64" d="M18.5 48L22.5 47L24.5 48L27.5 44L28.5 46L30 43.5L27.5 36L24 38L24 34L25.5 34L28 33L28.5 35L29 32.5L25.5 30L17 29L18 33.5L17 38.5Q20 39.5 19 44.5L17 44.5L18.5 48zM23 43L23 42L23 43zM27 43L27 42L27 43zM24 42L24 41L24 42zM23 37L23 36L23 37zM36.5 48Q39.3 46.6 38 42L41 40.5Q42.7 34.6 39 36L38.5 38L36 32L32 32.5L32 44.5L33 47Q36.3 48.3 35 43.5L36 43.5L36.5 48zM35 38L34 36L35 36L35 38zM28 29Q31.8 30 33 27.5Q33.7 24.9 31 26L31 21.5L30 19L24 18L23.5 16L22 20Q25 18.7 24 22.5L26.5 26Q29.5 25.3 28 29zM32.5 22L34 18Q30.2 16.8 32.5 22z" />
    <glyph glyph-name="glyph0x1140"
      unicode="&#x1140;"
      horiz-adv-x="64" d="M24 47L30.5 47L31 45.5L33 37L29 36L30.5 33Q33.1 32.3 32 35L35.5 35L37 31L32 30L33 26.5L31.5 27L28 28L27.5 30L24.5 22L23 22.5L22 19.5Q23.3 16.7 24.5 19L26.5 18L32 19L32.5 24L34 20.5L33 17L31 17Q32.1 14.3 29.5 15L27.5 15L20.5 17L19 16.5L20 22.5L19 24.5L21 28.5L16 31.5L17.5 34Q24.5 34.7 28 33Q29.5 36.7 26.5 36L21 40.5Q20.3 44.2 22.5 45Q25.1 44.3 24 47zM25 44L26 41Q25 39 28 40Q30 46 25 44zM30 43Q28 40 31 41L30 43zM22 30L22 29L22 30zM25 29L24 25L25 25L25 29zM28.5 25Q30.8 25.7 30 23.5L28.5 25z" />
    <glyph glyph-name="glyph0x1141"
      unicode="&#x1141;"
      horiz-adv-x="64" d="M27.5 48L30.5 41Q33.8 42.2 33 46L38 44.5L37 43.5L37 33Q28.3 34.5 24.5 30L23.5 32L20.5 30L18 30.5Q15.3 34.3 17 42.5L19.5 47L23 39.5Q20.3 38.4 21 35L24 35L24 40.5L26 41L26 43.5L27.5 48zM31 40L30 37L31 37L31 40zM30 37L29 35L30 35L30 37zM22 29Q25.3 30.3 24 25.5L25 25.5Q24 29.2 27 28L27.5 24L28 28L32.5 25L34.5 29Q36.8 29.7 36 27.5L37 25.5Q34.5 24 38 22.5L37 20.5L37.5 19Q34.5 18.1 36 22.5L35 22.5Q36 18 33.5 17L25 16L23.5 25L22 24.5L22 29zM28 22L27 20L28 20L28 22zM22.5 23L23 18.5L22 18.5L22.5 23z" />
    <glyph glyph-name="glyph0x1142"
      unicode="&#x1142;"
      horiz-adv-x="64" d="M18.5 47L20.5 46L24 47Q22.8 44 26.5 45L29 44L30.5 39L31.5 43L33 42.5L33.5 46L34.5 44L36.5 47L41 45L40.5 37L39.5 41L39 35Q36 36.2 37 32.5L35 33.5L36 36.5L33.5 38Q30.6 36.4 31.5 31L29.5 39L26 36.5L25 32Q21.3 33.5 22 30.5L21 30.5L20 34Q23 33 22 36L18 34.5L17.5 31L17 39.5L20 41.5L18.5 44L17 43.5L18.5 47zM21 42Q20 39 23 40Q24 43 21 42zM25 42L24 39L25 39L25 42zM28 42L27 39L28 39L28 42zM25.5 28L27.5 27L28.5 28L37 28L35 22.5L35 18L32.5 19L31 18.5Q30.3 21.1 33 20L33 22.5Q35.3 23.7 32.5 25L31.5 23L25 26.5L25.5 28zM37.5 23L37.5 22L37.5 23z" />
    <glyph glyph-name="glyph0x1143"
      unicode="&#x1143;"
      horiz-adv-x="64" d="M21 45L27.5 44L29 44.5L31.5 37L33 40Q36 41.2 35 37.5L36 37.5L37 40.5L36.5 42Q39.5 42.5 38 35.5L36 29.5L37 27L32 25L31 32.5L32 35.5L31 35.5Q31.9 32.1 26.5 34L26.5 33L30 31.5L31 28.5L28 26.5L27.5 28L26 22.5L27 20L24.5 21L23.5 19L23 21Q20 20 21 23Q24 22 23 25L18 26L19 28.5L16 29L17 31.5L17 33.5L21 45zM24 41L23 38L24 38L24 41zM22 34L20 33L18 30Q19 28 21 30Q25 28 24 32L22 34zM27 32Q25 29 28 30L27 32zM20 28L20 27L20 28z" />
    <glyph glyph-name="glyph0x1144"
      unicode="&#x1144;"
      horiz-adv-x="64" d="M35.5 48L35.5 47L35.5 48zM21.5 45L29 44L30.5 40L33.5 44L38 45L37 34L32.5 35L30.5 35Q26.1 33.5 27 36.5L26 36.5L24.5 33L22.5 34L20.5 32Q18.8 35.1 17 33.5L18 43L21.5 45zM23 42L24 36L26 37Q28 44 23 42zM40.5 44L40.5 43L40.5 44zM32.5 29Q34.8 29.7 34 27.5L31.5 22L29.5 25L27.5 25L25.5 24L25 27L27.5 26L28 28L32.5 29zM34.5 25L35 18L31.5 17L31 19.5L34.5 25z" />
    <glyph glyph-name="glyph0x1145"
      unicode="&#x1145;"
      horiz-adv-x="64" d="M24.5 48L26.5 47L30 48L30 46Q32.7 47.1 32 44.5L33 42.5Q30.7 41.2 32 36.5L30.5 35Q28.3 35.7 29 33.5L31.5 32L36.5 33Q39.5 31.5 36.5 30L34.5 30L32 30Q33.3 25.9 30 27L30 18.5L31 16.5L30 16.5Q30.7 19.1 28 18L27.5 16L25.5 16Q20.1 14.1 21 17.5L22 23Q24.7 21.9 24 24.5L26 28L16 29L17.5 32L19.5 33L24 32L24 35.5L20 41.5L20 45.5L22.5 47L24 46.5L24.5 48zM24 45L23 42L24 42L24 45zM27 45L26 43L27 43L27 45zM26 35Q25 31 28 32Q29 36 26 35zM32 19Q35 20 34 17Q31 16 32 19zM31.5 15L31.5 14L31.5 15z" />
    <glyph glyph-name="glyph0x1146"
      unicode="&#x1146;"
      horiz-adv-x="64" d="M20 48L29.5 48L31.5 47L35 48L35 45Q32.3 46.1 33 43.5L32 40Q35.3 41.1 34 37L31 35.5L37 35L35.5 31Q30.7 32.7 32 28.5L32.5 27Q29.5 27.5 31 20.5L33 20.5L30.5 16L24 16L24 20.5L23 20.5L22.5 17L21 22.5L22 27Q18.7 25.9 20 30L17.5 30L16 34L23.5 34L24.5 35L27.5 33L30 34Q31.3 37 27.5 36L24.5 37L21.5 36L20 39.5L21 42L24 42.5L20 43L20 48zM25 44L25 42L28 41Q30 45 25 44zM24 30L24 29L24 30zM26 29Q25 25 28 26Q29 30 26 29zM30 29L29 27L30 27L30 29zM24 25L24 24L24 25zM27 24L25 20L27 19L27 24zM29 21L29 20L29 21z" />
    <glyph glyph-name="glyph0x1147"
      unicode="&#x1147;"
      horiz-adv-x="64" d="M24.5 46Q27.8 47.1 27 44.5L25 41Q28.5 42.1 27 34.5L28 34.5L28.5 37L29 32L24.5 33Q23.3 30.7 22 33.5L21.5 36L19.5 32L16 33.5L19 42L21 42Q19.9 44.7 22.5 44L24.5 46zM24 39L24 36L26 37Q27 40 24 39zM33 46Q36 47.2 35 43.5L36 43.5L36.5 45L37 41Q39.7 42.1 39 39.5Q35 38.1 36 33L32 33L32 40.5L33 46zM36 38L36 37L36 38zM40.5 41L41 37.5L40 37.5L40.5 41zM24.5 31L25 29L27.5 28L28.5 30L29 28L32 28Q30.5 31.8 33.5 31Q37.8 26.6 36 17L32 17L32 23.5L30 24L30 20L28.5 20L27 20.5L27.5 18Q28.8 20.2 30 17.5L28.5 15Q22.1 14.1 20.5 18L19.5 16L17 17L17.5 20L20 19L19 22.5L21 26Q18 24.7 19 28.5L22.5 30L24 29.5L24.5 31zM28 24L28 23L28 24z" />
    <glyph glyph-name="glyph0x1148"
      unicode="&#x1148;"
      horiz-adv-x="64" d="M20 48L30 46L31 43.5L31 41.5L30 35L27 33.5L30 32L31 28.5L18.5 27L16 30.5Q17.2 33 21 32Q21.7 36.3 18 37.5L18 40.5L20 43.5L18 46.5L20 46.5L20 48zM24 43L22 40L24 39L24 43zM32 47Q36.9 48.8 35 42.5L36 42.5L36.5 45L37 38.5Q34.5 37 36 31.5L33.5 29L32 30.5L32 41.5L33 44.5L32 47zM39.5 37L41 36.5L39.5 36L39.5 37zM25.5 24L25.5 23L25.5 24zM28.5 23L29.5 20L30 23Q32.7 24.1 32 21.5L31 19.5L32 14.5L29.5 16L26.5 15L24.5 19L24 17Q21 15.7 22 19.5L24 19.5L24.5 22L26 18L28 18L28.5 23z" />
    <glyph glyph-name="glyph0x1149"
      unicode="&#x1149;"
      horiz-adv-x="64" d="M19.5 47L31.5 46L34 45L32 39.5L34 35.5L33 32L37 30.5L36.5 28L35.5 30L30 25.5L29 22.5L30 19Q26.7 20.3 28 15.5L27 15.5L26 23.5L24.5 26L23.5 22L23 25.5L24 27.5L22.5 27L19.5 26L17 27L16 29.5L19.5 32L22.5 31Q25.5 32.5 22.5 34L20.5 33Q15 35 17 44.5L19.5 47zM27 42L24 38L27 37L27 42zM27 36Q24 31 28 32L27 36zM31 31L32 29Q33 32 31 31zM36.5 37L36.5 36L36.5 37zM23.5 21L24 19.5L23 19.5L23.5 21z" />
    <glyph glyph-name="glyph0x114m"
      unicode="&#x0;"
      horiz-adv-x="64" d="M22 47L32 45L33 38.5L31 33L35 31.5L34.5 28L30 31.5L31 27.5L29 25.5Q29.9 19.1 27.5 16L25 17L26 21.5L24 28L20.5 26L17 28Q14.9 33.2 19.5 32L22.5 31Q25.1 30.2 24 33.5Q19.3 35.2 21 43.5L22 47zM24 43Q22 38 25 37Q28 38 27 42L24 43zM28 25L28 24L28 25zM27 23L28 21Q29 24 27 23zM19.5 41L20 38Q17.3 36.9 18 39.5L19.5 41zM23.5 24L23.5 23L23.5 24z" />
    <glyph glyph-name="glyph0x1150"
      unicode="&#x1150;"
      horiz-adv-x="64" d="" />
    <glyph glyph-name="glyph0x1151"
      unicode="&#x1151;"
      horiz-adv-x="64" d="M19 46L28.5 46L29 44.5L30 43.5L30 33.5L26 32Q24.5 28.2 27.5 29L32 30L32.5 27L34 32.5L34 34.5L35 41.5L36.5 43Q39.5 43.9 38 39.5L37 38.5L37 26.5L34.5 20L32.5 24L30.5 23L27.5 27L21.5 20Q22.1 24.6 19.5 26L16 27.5L17 28.5L17 38.5L19 46zM24 41L23 37L24 37L24 41zM20 31L19 29L20 29L20 31zM24 31L24 30L24 31zM25.5 22L25.5 21L25.5 22zM30.5 21L31 19.5L30 19.5L30.5 21z" />
    <glyph glyph-name="glyph0x1152"
      unicode="&#x1152;"
      horiz-adv-x="64" d="M35.5 48L35.5 47L35.5 48zM19.5 47L21.5 39L23 39.5L22 36.5L24 35.5L25 38.5L25 40.5L27.5 47Q30.7 45.7 30.5 41L34.5 46Q40.6 47.8 38 40.5L38.5 39Q35.9 39.8 37 36.5L38 34.5Q37.3 32.2 33.5 33L31 34Q32.3 38.6 29.5 40L28 33.5L28.5 32L21.5 30L19.5 31L18 30.5Q15.3 34.3 17 42.5L19.5 47zM21 39L20 35L21 35L21 39zM40.5 44L41 42.5L40 42.5L40.5 44zM33.5 30Q36.2 26.2 35 18.5L33.5 17L31 17.5L33 24.5L32 24.5L31.5 22L31 25Q26.5 23.2 28 28.5L29.5 28L33.5 30zM25 27Q28 28 27 25Q24 24 25 27zM36.5 24L37 20.5L36 20.5L36.5 24z" />
    <glyph glyph-name="glyph0x1153"
      unicode="&#x1153;"
      horiz-adv-x="64" d="M24 49Q26.7 50.1 26 47.5L27.5 48L29.5 49L33 46.5L32 44.5L33 42.5L32 40.5Q34.8 39.4 34 36Q30.2 37 29 34.5L30.5 32L31 34L38 31.5L36.5 29L32.5 30L31.5 27L29 25.5L31 17.5L28 18.5L27.5 16Q26 18.5 24.5 15Q20.8 14.2 20 16.5L23.5 22L25 22.5L24 24.5L25 24.5L25.5 23L29 28.5L18.5 29L17.5 30L16 29.5L17.5 32L21.5 34Q23.5 31.2 28 32Q30.1 37.2 25.5 36L20 35L21 39Q25.9 37.2 24 43.5Q22.8 46.2 21.5 44Q18.9 43.2 20 46.5L22 47.5Q21.3 44.9 24 46L24 49zM27 45L27 44L27 45zM32 44L31 42L32 42L32 44zM28 25L28 24L28 25zM32.5 20Q37 18 33.5 16Q30 15.2 32.5 20z" />
    <glyph glyph-name="glyph0x1154"
      unicode="&#x1154;"
      horiz-adv-x="64" d="M36.5 48L36.5 47L36.5 48zM27.5 47Q29.9 44.9 29 39.5L28 35Q32 33.6 30 40.5L31.5 44L33 43.5L33.5 45L34.5 43L35 46Q38.4 46.7 39.5 44L41 44.5L40.5 37L39.5 43Q37 39.5 38 32.5L36.5 31Q33.8 30.4 35 36.5L33.5 39L32 36.5L32 27Q36.1 28.7 35 24.5L35 22.5L35.5 19L36.5 25L38 19Q35 20.2 36 16.5L34.5 17Q32.3 16.2 33 18.5L31 19.5L31 18Q27.3 19.5 28 16.5L27 16.5Q28.1 20.7 24 19L24 23.5L25 25.5L23 28.5L25 29L24.5 32L17 30L16 41.5L18.5 46Q20.8 46.7 20 44.5L21 41Q23.7 42.1 23 39.5Q17.3 36.7 22.5 34L24 34.5L24 41.5L27.5 47zM37 45L36 43L37 43L37 45zM29 33L27 31Q26 27 29 26L31 29Q33 34 29 33zM28 25L27 23L28 23L28 25zM32 23L32 22L32 23zM22.5 22L22.5 21L22.5 22z" />
    <glyph glyph-name="glyph0x1155"
      unicode="&#x1155;"
      horiz-adv-x="64" d="M36.5 48L39 47Q39.9 38.2 37 33L35 33L35 39L33 39L32 29L34 28.5Q31.4 27.1 32 22.5L35 21L35 17L33.5 17L31.5 20L24 17L25 26Q29.1 24.3 28 28.5L31 30L28 37.5L32.5 44L34.5 43L36.5 48zM27 24L27 23L27 24zM20.5 47Q23 46 22 41.5L21 35Q26.4 36.5 28 33.5Q28.9 30.5 24.5 32L22.5 32L17 31L16 39.5L17 43.5L20.5 47zM40.5 46L41 37.5L40 37.5L40.5 46zM26.5 41L27 39.5L26 39.5L26.5 41z" />
    <glyph glyph-name="glyph0x1156"
      unicode="&#x1156;"
      horiz-adv-x="64" d="M22.5 48L23 46L25 46L25 37.5L27 37Q25.9 40.3 30 39L31.5 34L32.5 38L34 34.5L33 32.5L35.5 29L37 28.5L32 24.5L33 22.5L32 22.5L31.5 24L29.5 24L26.5 25L25 22.5L27 19.5L24 20.5Q25.1 17.2 22.5 18Q19.8 19.3 22 20.5L22 23Q19 21.7 20 25.5L18 28.5L19.5 31Q20.8 28.7 22 31.5L19 33.5L21 38.5L21 40.5Q20.1 45.9 22.5 48zM26 36L26 33L28 32Q29 37 26 36zM27 31L27 30L28 30L27 31zM28 29L27 27L28 27L28 29zM30.5 20L30.5 19L30.5 20z" />
    <glyph glyph-name="glyph0x1157"
      unicode="&#x1157;"
      horiz-adv-x="64" d="M21 47L26 47Q24.8 41.7 28 42.5L28 38.5L34.5 44L37 44Q35.9 46.7 38.5 46Q42.8 44.2 41 36.5L39 36.5Q40.3 31.2 37.5 30Q35.3 30.7 36 28.5L37 26.5L36 26.5L35 33.5L36 35.5L34.5 39L33 32L29 33L27.5 30L20 28L19.5 30L18 29.5L18 38.5L16 39L16 41.5L19.5 46L20.5 44L21 47zM40 42L39 40L40 40L40 42zM36 40L36 39L36 40zM25 38L25 37L25 38zM22 35L22 33L24 34L22 35zM26.5 26Q28.8 26.7 28 24.5L29.5 25Q32.3 25.6 31 19.5L32 16Q28.3 14.5 29 17.5L28 17.5Q28.7 14.5 25 16L24 21.5L26.5 26zM28 24L27 18L28 18L28 24zM36.5 25L38 21.5L36 20.5L36.5 25z" />
    <glyph glyph-name="glyph0x1158"
      unicode="&#x1158;"
      horiz-adv-x="64" d="" />
    <glyph glyph-name="glyph0x1159"
      unicode="&#x1159;"
      horiz-adv-x="64" d="M17.5 47L25 46L25.5 44L27.5 44L31.5 43L33 46L37.5 47L41 46L41 36.5L39 36L39 33.5L38 31Q35.3 29.9 36 32.5L35 34.5L36 36.5L34.5 39Q32.1 36.9 33 31.5Q35.2 30.2 34 25.5L33 21.5L36 17.5L34 16.5L31.5 20L24 16Q23.1 20.7 25.5 23Q26.8 20.7 28 23.5L27 25.5L31 30.5L31 32.5L28 34L27.5 32L27 34.5L27.5 36Q24.2 37.1 25 34.5L24 32L20.5 30L17 31.5Q16.3 33.7 18.5 33Q21.1 34.4 20.5 39L22 38.5Q23.1 41.8 20.5 41L16 44.5L17.5 47zM36.5 26L38 20.5L36 20L36.5 26z" />
    <glyph glyph-name="glyph0x115m"
      unicode="&#x0;"
      horiz-adv-x="64" d="M19.5 45L20.5 42L22.5 45L28 43L26 39.5L28 39L29 35Q26 36 27 33Q29.7 34.1 29 31.5Q26.3 30.4 27 27Q21.4 29.2 23 23.5L20 22L20 26Q17 24.7 18 28.5Q20.6 29.9 20 34.5L17 33.5L19.5 45zM24 41L23 39L24 39L24 41zM27 33L26 31L27 31L27 33zM34.5 44L36.5 34L38 38L40 37.5L38 32.5L38.5 31Q37.3 33.3 36 30.5L34 25.5L34.5 24L32.5 23L32 27.5L33 28.5Q31.6 38.4 34.5 44zM31.5 33L31.5 32L31.5 33zM18.5 24L18.5 23L18.5 24zM24.5 24L24.5 23L24.5 24z" />
    <glyph glyph-name="glyph0x1160"
      unicode="&#x1160;"
      horiz-adv-x="64" d="M18.5 48L24 47Q23 44 26 45L27.5 48L28.5 46L30.5 46L34.5 47L37 46L37 41Q39.7 42.1 39 39.5L37 34L32 33L31.5 36L28.5 32Q24.3 33.1 26 29Q29 28 28 31L31 31L31.5 29L34 30L34 20.5L35 19.5L34 17Q30.3 18.2 32 13L30 13L28.5 16L27.5 13Q26.3 16.7 22 16L22.5 22L25 20.5L24.5 28L23.5 25L22 30Q25 29 24 32Q21.3 30.9 22 33.5L20.5 35Q18.2 29.8 16 33.5L19 39.5L19 42.5L16 44Q14.5 47.8 17.5 47L18.5 48zM22 44L22 40Q23 38 25 40L26 38L27 40L26 42L26 44L22 44zM31 44L30 38Q32 35 33 38L31 44zM36 37L36 36L36 37zM28 25L26 23L28 23L28 25zM32 21L31 18L32 18L32 21zM25 19L25 18L25 19zM28 19L28 18L28 19zM40.5 40L42 37Q38.5 35.9 40.5 40zM48.5 39L49 37.5L48 37.5L48.5 39zM36.5 22L39 20.5L36 20L36.5 22zM36.5 18L36.5 17L36.5 18z" />
    <glyph glyph-name="glyph0x1161"
      unicode="&#x1161;"
      horiz-adv-x="64" d="" />
    <glyph glyph-name="glyph0x1162"
      unicode="&#x1162;"
      horiz-adv-x="64" d="M18.5 48Q24.6 49.2 24 46.5L24 44.5L24.5 42L26.5 46L27.5 44L28.5 47L30 42Q32.7 40.9 32 43.5L35.5 47L36.5 46Q39.3 46.6 38 40.5Q35.8 39.2 37 34.5L35.5 33L34 35.5L35 38Q32 39.2 33 35.5L31.5 32L30.5 39Q27.9 37.6 28.5 33L27.5 36L27 33L24 31.5L26.5 28Q29.1 27.2 28 30.5L30 31.5L30.5 28L34 30L34 21.5L33 20.5Q37.5 18 32 15.5Q33 11.7 30 13Q31.3 17.1 28 16L27.5 14L22 16L22 22L24 22L24.5 20L25 27.5L24 27.5Q25 23.7 22 25L22 29Q24.7 27.9 24 30.5L22 31.5L21.5 30L20.5 33L19 32.5L22 37L18.5 35Q16.3 35.7 17 39.5L20 44.5L17 45.5L18.5 48zM22 44L23 42Q24 45 22 44zM28 25L26 23L28 23L28 25zM28 20L27 18L28 18L28 20zM25 19L24 17L25 17L25 19zM32 19L32 18L32 19zM37.5 21L37.5 20L37.5 21zM36.5 18L37 16.5L36 16.5L36.5 18z" />
    <glyph glyph-name="glyph0x1163"
      unicode="&#x1163;"
      horiz-adv-x="64" d="M17 46L28.5 45L30 43.5L29 39.5L31 34.5L30 31L26.5 32L22 31L21.5 35L17 31.5L19 43Q15.7 41.9 17 46zM24 45L22 40Q23 38 25 40L26 38L27 40L24 42L24 45zM32 46Q36.1 47.7 35 43.5L36 43.5L36.5 45L38.5 40Q40.8 40.7 40 38.5L38 38.5L35.5 33Q30.3 31.2 32 36.5L33 39.5L32 46zM36 37L36 36L36 37zM39.5 37L39.5 36L39.5 37zM23.5 30L25.5 25L27.5 24L28 28Q32.5 29.7 31 24.5L32 24.5L33 28Q35.7 29.1 35 26.5L37 26.5L38 21.5L36 20.5L35.5 24Q36.1 19.4 33.5 18Q31.3 18.7 32 16.5L29.5 15L27 16L28 20.5L26 19.5L25.5 16Q22.8 18.8 23.5 25L22 24.5Q21 29 23.5 30zM22.5 23L23 17.5L22 17.5L21 19.5L22.5 23z" />
    <glyph glyph-name="glyph0x1164"
      unicode="&#x1164;"
      horiz-adv-x="64" d="M17 48L30 46Q31.3 41.9 28 43Q29.3 46.3 24.5 45L22 44L21 36L27 35L27.5 39L28 37L30 37L30 29.5L32 29L32.5 31Q34.8 29.2 34 24.5L33 20L35 19.5L34 17Q30.3 18.2 32 13L30 13L28.5 16L27.5 13L26 16L22 16L22 23Q26.5 21.2 25 26.5L22 25.5L22 29L28 29L28 32L18.5 32L17 33.5L18 39.5L17 40.5L17 48zM28 25L27 23L28 23L28 25zM32 21L31 18L32 18L32 21zM28 19L28 18L28 19zM35.5 48L36 46Q39 47 38 44Q35.3 45.1 36 42.5L36 40.5L36 33.5L33.5 33Q30.5 34.5 32 40.5L33 47L35.5 48zM35 38L35 37L35 38zM37.5 21L37.5 20L37.5 21z" />
    <glyph glyph-name="glyph0x1165"
      unicode="&#x1165;"
      horiz-adv-x="64" d="" />
    <glyph glyph-name="glyph0x1166"
      unicode="&#x1166;"
      horiz-adv-x="64" d="M28.5 46L31 44.5L33 37.5L31 37.5Q30.2 32.3 34 31.5L32 30.5Q32.8 33.1 29.5 32L30 30.5L31 21L27.5 20L24.5 21L21.5 20L20 24Q26.4 23 28 28.5L26.5 31L24.5 30Q23.3 32.3 22 29.5Q22.8 27.2 20.5 28L19 27.5L23 35.5Q19.8 36.9 21 42Q25.1 40.3 24 44.5L25.5 44L28.5 46zM24 39L24 38L24 39zM27 36L24 33L25 32L28 33Q29 37 27 36zM28 25L28 24L28 25zM23.5 28L23.5 27L23.5 28zM32 25Q35.3 26.3 34 21.5L32 20.5L32 25zM17.5 24L17.5 23L17.5 24zM36.5 24L37 21.5L36 21.5L36.5 24z" />
    <glyph glyph-name="glyph0x1167"
      unicode="&#x1167;"
      horiz-adv-x="64" d="M21 47L23.5 46L26.5 47L33 44.5L32 39.5Q34.5 38 33 32.5L35 28.5Q33.2 24.2 31.5 27Q28.9 27.8 30 24.5L29 21.5Q31.5 20 28 18.5L27.5 16Q23.8 18.8 24.5 26L23.5 23L23 25.5L24 28L22 28Q23.5 24.2 20.5 25L17 27L18.5 31Q23.3 29.7 22 33Q18.3 31.6 20 37.5L20.5 39L19 39.5L21 40L21 47zM25 39L25 38L25 39zM32 39L31 37L32 37L32 39zM32 36L31 33L32 33L32 36zM30 31Q29 27 32 28Q33 32 30 31zM28 23L27 21L28 21L28 23zM36.5 28L36.5 27L36.5 28zM23.5 21L24 19.5L23 19.5L23.5 21z" />
    <glyph glyph-name="glyph0x1168"
      unicode="&#x1168;"
      horiz-adv-x="64" d="M17 48L27 46L27.5 48L28 46Q32 47.4 30 40.5L29 36.5L30 31L20.5 30L16 31.5L19 36.5L19 42.5Q16 43.7 17 48zM24 44L24 35L26 38Q27 43 24 42L24 44zM35.5 48L36 46L38 45.5L37 44.5L37 32L32 32L32 38.5L32 40.5Q31.3 46.7 35.5 48zM28 30L33 27.5L31 24.5L35 18.5Q32.7 14.8 30.5 20L23.5 16Q21 17.2 22 21Q24.7 19.9 24 22.5L26.5 24L28 23.5L28 30z" />
    <glyph glyph-name="glyph0x1169"
      unicode="&#x1169;"
      horiz-adv-x="64" d="M18.5 48L21.5 48L27.5 44L28.5 46L30 42.5Q29.3 39.9 32 41L33 45L38.5 46L38 44.5L37 34.5L35.5 32L30.5 33L26.5 31L17 29L19 45Q16.3 43.9 17 46.5L18.5 48zM24 43L23 41L24 41L24 43zM30 40L29 37L24 38Q23 34 26 33Q30 32 30 35L30 40zM23 37L22 35L23 35L23 37zM34 37L33 35L34 35L34 37zM35.5 48L35.5 47L35.5 48zM40.5 44L40.5 43L40.5 44zM28.5 29L31.5 28L34 29L36 24.5L35 18L30.5 17L30 20.5L31 22.5L28 23.5L27.5 25L25 24L25 27Q28.8 25.7 28.5 29zM33 24L32 22L33 22L33 24zM36.5 28L37 26.5L36 26.5L36.5 28z" />
    <glyph glyph-name="glyph0x116m"
      unicode="&#x0;"
      horiz-adv-x="64" d="M18.5 48L22.5 47L24 47.5L24 46L28 46Q27 43 30 44L30 40.5Q27.8 39.2 29 34.5L30 31L21.5 31L20.5 30L18.5 30Q15.2 28.9 16 31.5L19 36.5L19 44Q16 42.7 17 46.5L18.5 48zM24 44L22 41L24 34L26 38Q27 43 24 42L24 44zM35.5 48L36 46L38 45.5L37 44.5L37 32L32 33L33 42L35 42.5Q31.5 44 34 45.5L35.5 48zM30.5 29L33 28L32 22.5L33 22.5L33.5 24L35 20.5L34 18Q31.3 19.1 32 16.5L30.5 17L26.5 19L25 18.5L24 20.5L25 22.5Q22.2 24.3 26.5 26L30.5 29zM28 25L27 22L28 22L28 25zM30 23L30 22L30 23zM32 22L31 20L32 20L32 22zM36.5 23L36.5 22L36.5 23zM22.5 22L22.5 21L22.5 22z" />
    <glyph glyph-name="glyph0x1170"
      unicode="&#x1170;"
      horiz-adv-x="64" d="" />
    <glyph glyph-name="glyph0x1171"
      unicode="&#x1171;"
      horiz-adv-x="64" d="" />
    <glyph glyph-name="glyph0x1172"
      unicode="&#x1172;"
      horiz-adv-x="64" d="M36.5 47L41 45L40.5 38L39.5 44Q40 36.4 38 33L35.5 32L35 34.5Q37.3 35.7 34.5 37L32 35.5L32 30.5L34 30L34 27.5L37 26.5L38 21.5L36 22.5L37 24.5L35 23.5Q36.5 15.9 33 17L32.5 19L32 17Q29.3 15.9 30 18.5Q36.3 21.7 29.5 25L26.5 24Q23.5 23.3 25 27L30.5 28L32 27.5L31 34.5L28.5 38L24.5 32Q22.8 35.7 21 32.5L20.5 31L20 34L17 34L17 42L24 46L24.5 37L25 43L31 41L31.5 43L32.5 41L33.5 45L34.5 41L36.5 47zM30 40L30 39L30 40zM33 25L32 23L33 23L33 25z" />
    <glyph glyph-name="glyph0x1173"
      unicode="&#x1173;"
      horiz-adv-x="64" d="M21.5 48L22 41.5L23.5 40L24 43L28 45.5Q27.3 47.7 29.5 47Q32 46 31 41.5Q28.8 40.3 30 35.5L27 32.5L30 32L30 29Q32.7 30.1 32 27.5Q29.3 26.4 30 23Q27.3 21.9 28 24.5L29 28L21.5 27L18.5 28Q14.8 26.7 16 30.5L19.5 32Q20.8 29.7 22 32.5L21.5 35L19.5 34L17 39.5Q19.3 40.7 18 45.5L19.5 47L21.5 48zM33 47Q36.7 48.3 35 42.5L37 42.5L36 39.5L38 36Q34.7 37.3 36 32.5L37 30L33.5 29Q31 30 32 34.5L32 36.5L33 39.5L32 41.5L33 47zM39.5 37L42 36.5L39.5 36L39.5 37zM24.5 25Q26.8 25.7 26 23.5L25 20.5L27 16Q24.3 14.9 25 17.5L24 17.5L23.5 16L22 19Q25 17.7 24 21.5L22 21.5Q20.9 24.8 23.5 24L24.5 25zM31.5 23L32 21.5L31 19.5Q34.5 18 32 16.5L31.5 13L30 16L28 16L28 21L31.5 23z" />
    <glyph glyph-name="glyph0x1174"
      unicode="&#x1174;"
      horiz-adv-x="64" d="M22.5 49L25 48L24 42.5L28.5 40L31.5 41L34 40L33 36.5L36 34.5L36.5 36L38 33.5Q37 31 32.5 32L29 28.5Q32.5 27 30 25.5Q29.3 23.2 31.5 24L34 19.5L32.5 17L31 17.5L32 15.5L27.5 14L24 16L23.5 14L23 18L25 18.5L22 19.5L20 29L24 30.5L16 32Q14.7 35.3 19.5 34L25 35Q26.8 39.5 21.5 38L20 39.5L20 48L22.5 49zM32 37L30 34L31 32L32 32L32 37zM28 30L27 28L28 28L28 30zM23 25L23 24L23 25zM32 23L31 20L32 20L32 23zM29.5 48L30.5 46Q27.7 45.3 29.5 48z" />
    <glyph glyph-name="glyph0x1175"
      unicode="&#x1175;"
      horiz-adv-x="64" d="" />
    <glyph glyph-name="glyph0x1176"
      unicode="&#x1176;"
      horiz-adv-x="64" d="M22.5 48L24.5 48L26 48L26 43L28 43L28 48L29.5 48Q31 44.5 32.5 47L35.5 48L35 46.5L33 43.5L37 38.5L35.5 39L32 38L32 36Q27.9 37.3 29 34L35.5 35L37 32L33.5 32L30 30L29 25.5L31.5 20L32.5 24L33 18L30 18Q31.1 15.3 28.5 16Q27 13.5 25.5 17Q22.9 16.2 24 19.5L23 19.5L22.5 18Q19.8 19.4 21 24Q24 22.7 23 26.5L25 26.5Q25.8 30.2 23.5 31L16.5 31L16 33.5Q17.3 36.2 18.5 34Q23.3 32.8 24.5 35L27.5 33L28 35.5L22.5 39Q21.3 35.2 17 36L20 45.5L22.5 48zM26 22L25 20L26 20L26 22z" />
    <glyph glyph-name="glyph0x1177"
      unicode="&#x1177;"
      horiz-adv-x="64" d="" />
    <glyph glyph-name="glyph0x1178"
      unicode="&#x1178;"
      horiz-adv-x="64" d="M18.5 48L18.5 47L18.5 48zM20 48L30 46L31.5 43L32 47Q36.5 48.7 35 43.5L36 43.5L36.5 46L38 38.5L35.5 31L34 31.5L33.5 30L32.5 32L32 28.5L34 28.5L35 20.5L31.5 16L28.5 15L26.5 16L25 15.5L23.5 23L22.5 18L22 26L24.5 25L26.5 26L28 25.5Q27.2 28.1 30.5 27L29.5 29L26.5 28L24.5 29L21.5 28L18.5 29Q13.9 27.6 16 33.5L18.5 35L20 34.5L21.5 40L22.5 37L24.5 40Q23.9 35.4 26.5 34L27 35.5L26 38.5L27 44Q24.3 45.1 25 42.5L24 42.5L23.5 44L23 42L20 43.5L20 48zM31 42L31 40L28 34Q27 32 30 33L31 31L32 32Q31 37 33 38Q35 43 31 42zM28 24L26 22L27 18L28 18L28 24zM39.5 40L41 36.5Q41.7 33.9 39 35L39.5 40zM36.5 23L38 20.5L36 19.5L36.5 23zM31.5 15L31.5 14L31.5 15z" />
    <glyph glyph-name="glyph0x1179"
      unicode="&#x1179;"
      horiz-adv-x="64" d="M21 48Q25.3 49 26.5 46Q28 49.5 29.5 47L31.5 46L33 46.5L32 44.5L33 42.5L32 36Q27.9 37.3 29 34L31.5 33L32 35Q36.7 36 38 32.5L32 29.5L33 27.5L29 25.5L31 18.5L28 18L27.5 16L25 17L24.5 15L22 15.5Q20.5 21.5 23.5 23L25 23.5L20 26.5Q20.8 30.2 18.5 31Q15.2 29.9 16 32.5L17.5 34L25.5 34L28 33L26.5 37Q22 36 21 38.5L21 48zM28 30L26 28L28 27L28 30zM28 20L27 18L28 18L28 20zM24 18L24 17L24 18zM32.5 20L33 17.5L32 17.5L32.5 20zM31.5 15L31.5 14L31.5 15z" />
    <glyph glyph-name="glyph0x117m"
      unicode="&#x0;"
      horiz-adv-x="64" d="M35.5 48L36 46Q39 47.2 38 43.5L39 40L37 39.5L37 32L32 32Q31.3 35.4 34 36.5L32.5 37L29.5 32Q24 33.5 22.5 31L20.5 32L17.5 31L16 32.5L16 40.5L17 47L21 46Q19.5 42.2 22.5 43L22 44.5Q21.3 47.1 24 46L24.5 43L27 44Q25.9 46.7 28.5 46Q31 44.8 30 41Q33.3 39.7 32 44.5L35.5 48zM26 38L25 35L26 35L26 38zM30.5 29Q34.7 30.3 33 25.5L33 23.5L33 20Q36.3 21.1 35 17Q32.3 15.9 33 18.5Q31.3 21.7 29.5 18L26 18Q27.3 15 23.5 16L22 19.5L25 18.5L24 20.5L25 25L30.5 29z" />
    <glyph glyph-name="glyph0x1180"
      unicode="&#x1180;"
      horiz-adv-x="64" d="" />
    <glyph glyph-name="glyph0x1181"
      unicode="&#x1181;"
      horiz-adv-x="64" d="M23.5 47L24 44.5L23 41.5L24.5 40L28.5 44Q31.5 44.9 30 40.5L30 38.5L31 33.5L30 31L24 33L23.5 31L21 32Q22.1 34.7 19.5 34L16 31.5Q17.2 41.8 23.5 47zM24 38L23 36L24 36L24 38zM33 46Q36.7 47.2 35 42L39 42L39 39.5L37 33L33.5 32Q31 33 32 37.5L33 38.5L33 46zM39.5 37L39.5 36L39.5 37zM30.5 28Q36.6 29.8 34 22.5L35 19L32 17.5L31.5 16L28 18.5L27.5 21L27 19L25 19.5L25 21.5L26 26L30.5 28zM33 25L33 24L33 25zM28 24L27 22L28 22L28 24zM32 23L30 22L31 20L33 21Q34 24 32 23zM36.5 24L37 21.5L36 21.5L36.5 24z" />
    <glyph glyph-name="glyph0x1182"
      unicode="&#x1182;"
      horiz-adv-x="64" d="" />
    <glyph glyph-name="glyph0x1183"
      unicode="&#x1183;"
      horiz-adv-x="64" d="" />
    <glyph glyph-name="glyph0x1184"
      unicode="&#x1184;"
      horiz-adv-x="64" d="M23.5 47L26 47Q25 42.7 28 43.5L28 39L29.5 39L36 44.5L36.5 43L37 45L42 44L41 41.5L40.5 31L39.5 35L38 32.5L38 30.5L36.5 26Q33.6 27.6 34.5 33L34 31L29 33L27.5 30L23.5 28L21.5 28Q18.9 27.3 20 30L17.5 30L18 31.5Q19.2 38.2 16 40.5L17 44Q19.7 42.9 19 45.5L20 45.5Q19.3 42.9 22 44L23.5 47zM35 37Q32 33 36 34L35 37zM31.5 28L31.5 27L31.5 28zM26.5 26L27.5 22L28 25L31.5 26L32 22.5L31 20.5L32 16L29 17.5L27.5 20L27 18.5L28 16L25 17.5L24 22.5L26.5 26zM36.5 25L38 21Q34.2 19.8 36.5 25zM23.5 20L23.5 19L23.5 20zM34.5 19L35 17L33 17.5L34.5 19zM23.5 18L23.5 17L23.5 18z" />
    <glyph glyph-name="glyph0x1185"
      unicode="&#x1185;"
      horiz-adv-x="64" d="" />
    <glyph glyph-name="glyph0x1186"
      unicode="&#x1186;"
      horiz-adv-x="64" d="M17.5 46L20.5 45L23 43.5L24.5 37L27 40.5L24 41Q22.5 44.8 25.5 44L28 45L28 43L32 41L32 45L33.5 45L33 43.5L34.5 40L35.5 44L36.5 41L37 44Q40.7 45.4 39 39.5L37 31Q34 29.7 35 33.5L33.5 36L32.5 33L31.5 35L28.5 30L27.5 32L27 30L21.5 32L18 30.5L17.5 29L17 34.5L20 40.5L17 42L17.5 46zM32 39L32 38L32 39zM21 33L21 32L21 33zM40.5 44L41 42.5L40 42.5L40.5 44zM23.5 29L24 27.5L23 27.5L23.5 29zM25.5 26Q28.3 24.7 26 23.5L27 19.5L26.5 18Q29.5 18.8 28 15L25 16.5L25.5 26zM30.5 25L32 16L29 17.5L28 23Q30.8 22 30.5 25zM38.5 25L39 23.5L36 21.5Q34.9 24.8 37.5 24L38.5 25zM23.5 24L23.5 23L23.5 24zM23.5 22L24 16.5L23 16.5L22 20.5L23.5 22z" />
    </font>
</defs>
</svg>
